<svg width="71" height="90" viewBox="0 0 71 90" fill="none" xmlns="http://www.w3.org/2000/svg">
<path d="M5.87256 53.81C7.87256 55.81 9.87256 57.75 11.8726 59.71C12.6026 60.42 13.3826 61.08 14.1126 61.8C16.6726 64.35 19.2226 66.91 21.6726 69.57L24.9926 73.06C26.4748 74.5178 27.7109 76.2064 28.6526 78.06C28.9126 78.69 28.6526 78.68 28.1526 78.35C27.3867 77.8591 26.6641 77.3037 25.9926 76.69C25.6426 76.33 25.2526 75.98 24.8926 75.63L24.3226 75.12L23.7626 74.64L21.5826 72.45C20.1326 70.99 18.6426 69.54 17.2226 68C15.5326 66.16 13.5426 64.46 11.6826 62.7L5.56256 56.84C4.31256 55.62 3.07256 54.41 1.85256 53.13C1.62256 52.89 1.38256 52.65 1.16256 52.39C0.94256 52.13 0.93256 52.14 0.82256 52C0.71256 51.86 0.59256 51.74 0.44256 51.52C0.13526 51.1627 -0.0223491 50.7006 0.00256016 50.23C0.0400148 49.999 0.107241 49.7737 0.20256 49.56C0.29256 49.34 0.41256 49.11 0.48256 48.98C1.16256 47.76 1.93256 46.7 2.64256 45.59C3.76256 43.89 4.78256 42.17 5.80256 40.47C6.03256 40.09 6.22256 39.71 6.47256 39.35C6.78276 38.8704 7.13408 38.4187 7.52256 38C7.76209 37.7983 8.04686 37.6577 8.35256 37.59C8.4702 37.5487 8.59047 37.5153 8.71256 37.49C8.88256 37.49 8.97256 37.64 8.98256 38.01C8.98874 38.5158 8.88644 39.0171 8.68256 39.48C7.29256 42.96 4.83256 45.93 3.06256 49.13C2.91256 49.42 2.75256 49.71 2.62256 49.98L2.53256 50.18C2.53256 50.18 2.53256 50.24 2.53256 50.18L2.73256 50.43L3.05256 50.8C3.93256 51.8 4.94256 52.8 5.93256 53.8L5.87256 53.81Z" fill="white"/>
<path d="M36.8325 58.64C36.8325 58.64 39.1425 58.49 39.5025 57.18C39.8625 55.87 39.5025 61.1 39.5025 61.1L36.8325 58.64Z" fill="white"/>
<path d="M40.2225 47.8L34.1225 48.08L31.9125 48.24L27.9925 48.45C26.6825 48.45 25.3725 48.54 24.0625 48.62C22.9025 48.7 21.7425 48.8 20.6025 48.9L16.1725 49.29C15.7125 49.29 15.7725 49.29 16.1725 49.23C16.5725 49.17 17.2625 48.98 18.1025 48.84C21.1025 48.33 24.1025 47.84 27.1025 47.51L32.6625 46.92L38.7925 46.39L42.5625 46.11C44.4725 45.96 46.3825 45.84 48.2725 45.64C49.7425 45.5 51.1625 45.24 52.6125 45.04C52.9325 45.04 53.2425 44.94 53.6125 44.91C54.8025 44.79 55.1925 44.91 55.4925 45.32C55.5664 45.4129 55.6301 45.5135 55.6825 45.62C55.8325 45.97 55.3725 46.3 54.5025 46.49C51.8442 47.0215 49.1501 47.3557 46.4425 47.49L40.2225 47.83V47.8Z" fill="white"/>
<path d="M21.9426 44.41L20.6526 42.78C20.4926 42.58 20.3126 42.4 20.1626 42.2C19.6526 41.46 19.1626 40.71 18.6726 39.95L18.0126 38.95C17.7158 38.5519 17.483 38.1099 17.3226 37.64C17.2326 37.33 17.8326 37.53 18.1626 37.94C18.7226 38.73 19.3926 39.47 19.9826 40.29C20.3726 40.7609 20.7864 41.2115 21.2226 41.64L22.5826 43.18L23.4326 44.12C23.8726 44.59 24.3026 45.07 24.7726 45.5C25.1575 45.8133 25.558 46.107 25.9726 46.38C26.0663 46.4342 26.1565 46.4943 26.2426 46.56C26.5526 46.82 26.5726 46.98 26.3426 47.34C26.2951 47.427 26.2416 47.5105 26.1826 47.59C26.0095 47.8436 25.6729 47.9256 25.4026 47.78C24.6045 47.3172 23.8882 46.7259 23.2826 46.03C22.8126 45.52 22.3626 45.03 21.9026 44.46L21.9426 44.41Z" fill="white"/>
<path d="M8.81264 53.87C11.2226 56.64 13.7226 59.33 16.2226 62.02C17.1526 63.02 18.2226 63.89 19.1026 64.89C22.3526 68.41 25.5326 72.01 28.6926 75.66C30.0626 77.3 31.5126 78.9 32.9126 80.53L34.2726 82.12C34.6726 82.71 35.0626 83.28 35.4126 83.92C36.2168 85.2296 36.719 86.702 36.8826 88.23C36.8826 89.44 36.2126 89.01 35.4126 88.55C34.2841 88.0616 33.214 87.4477 32.2226 86.72C31.7626 86.29 31.2726 85.87 30.7626 85.45C30.2969 84.9943 29.8562 84.5136 29.4426 84.01L26.7626 81.01L25.4126 79.51L24.1226 77.92C23.2626 76.85 22.4126 75.77 21.5726 74.67C19.3782 72.0851 17.0413 69.6246 14.5726 67.3C11.9926 64.6 9.41264 61.87 6.87264 59.08C5.29264 57.39 3.74264 55.64 2.22264 53.74L1.80264 53.16C1.63264 52.92 1.46264 52.63 1.29264 52.36C0.984212 51.8313 0.783678 51.2467 0.702637 50.64C0.757977 50.0136 0.899304 49.3979 1.12264 48.81C1.40264 48.19 1.57264 47.81 1.79264 47.4C2.62264 45.78 3.50264 44.27 4.31264 42.74C4.94264 41.54 5.51264 40.34 6.05264 39.13C6.59264 37.92 7.05264 36.68 7.68264 35.55C7.96264 35.04 8.16264 34.55 8.44264 34.04C8.76592 33.3722 9.17615 32.7502 9.66264 32.19C10.0216 31.8911 10.4467 31.682 10.9026 31.58C11.1126 31.58 11.3326 31.44 11.5126 31.41C11.6926 31.38 12.0326 31.59 12.2026 32.09C12.4162 32.7837 12.4472 33.5208 12.2926 34.23C12.0526 35.5 11.7526 36.76 11.4226 37.99C11.2636 38.6015 11.0493 39.1973 10.7826 39.77C10.5426 40.35 10.2826 40.92 10.0226 41.49C8.97264 43.77 7.80264 46 6.79264 48.17L6.22264 49.32C6.13133 49.5016 6.05118 49.6887 5.98264 49.88L5.89264 50.1C5.87717 50.0911 5.85811 50.0911 5.84264 50.1C5.74264 49.98 6.09264 50.44 6.30264 50.72L7.10264 51.72C7.67264 52.39 8.27264 53.06 8.88264 53.72L8.81264 53.87Z" fill="white"/>
<path d="M59.5424 26.64C60.5762 29.2397 61.8064 31.757 63.2224 34.17C64.6524 36.63 66.2224 39.01 67.9524 41.48L69.7124 44.01L70.0124 44.8L70.1524 45.2L70.2324 45.39V45.49H70.0724C70.117 45.7581 70.117 46.0318 70.0724 46.3C69.9964 46.5811 69.8891 46.8528 69.7524 47.11C69.4487 47.6548 69.1148 48.1822 68.7524 48.69L68.2924 49.33L67.9624 49.77C63.2124 55.83 58.3824 61.66 53.8324 67.77C51.8324 70.48 49.8324 73.25 48.0424 76.02C46.8624 77.8 45.7524 79.63 44.6524 81.44C43.5524 83.25 42.2724 84.97 41.2724 86.79C40.6724 87.91 40.2724 87.66 40.0324 86.34C39.8353 84.2534 40.1334 82.1497 40.9024 80.2C42.9315 76.2097 45.2059 72.349 47.7124 68.64C50.2924 65.01 53.0124 61.5 55.8724 58.07C57.5724 56.07 59.2124 53.86 60.8124 51.66L64.8824 46C64.8824 45.92 65.0424 45.82 64.9824 45.73L64.8224 45.48C64.8224 45.38 64.7024 45.28 64.6324 45.17L64.4324 44.87L64.1424 44.46L62.9824 42.82C62.2224 41.74 61.4224 40.64 60.6724 39.47C59.1319 37.1755 57.7294 34.7913 56.4724 32.33C56.0224 31.45 55.6024 30.55 55.2024 29.64C54.9924 29.19 54.8124 28.73 54.6224 28.27L54.4124 27.76L54.3024 27.42C54.2418 27.2113 54.1579 27.01 54.0524 26.82C53.8418 26.7764 53.6275 26.7529 53.4124 26.75H53.0824H51.3324C49.9524 26.68 48.5724 27.02 47.1824 26.96L43.0224 27.05L38.8624 27.21C37.4824 27.21 36.1024 27.3 34.7224 27.37C30.4424 27.6 26.2624 28.22 22.0424 28.69C21.1124 28.79 20.2124 28.96 19.2724 29.03C18.3324 29.1 17.6824 29.12 17.0724 29.11C16.5447 29.0322 16.032 28.8737 15.5524 28.64C14.8448 28.2874 14.2441 27.7523 13.8124 27.09C13.6168 26.8376 13.4365 26.5738 13.2724 26.3C13.0824 25.87 13.3324 25.46 13.9324 24.94C14.7564 24.2139 15.7191 23.6628 16.7624 23.32C20.5968 22.5559 24.4689 21.9951 28.3624 21.64C30.3624 21.44 32.3624 21.2766 34.3624 21.15C36.3624 21.03 38.3624 20.86 40.3624 20.89H44.3624H46.3624C47.0306 20.8751 47.699 20.9085 48.3624 20.99C49.0424 21.1 49.7224 21.24 50.3624 21.32H52.4224C52.6324 21.32 53.5024 21.32 54.1024 21.37C54.4372 21.3742 54.7713 21.4009 55.1024 21.45H55.5824C55.7283 21.4813 55.8672 21.5389 55.9924 21.62C56.2565 21.729 56.4924 21.8966 56.6824 22.11L56.9924 22.38C57.0924 22.24 56.7924 22.68 57.2124 22.08L57.2724 22.16L57.4024 22.34L58.4524 23.72L59.2824 25.64L59.6524 26.55L59.5424 26.64Z" fill="white"/>
<path d="M39.6425 48.92C36.8825 49.04 34.1125 49.19 31.3525 49.41C30.3525 49.48 29.3525 49.71 28.3525 49.76C24.7725 49.9 21.1925 50.06 17.6225 50.35C16.8225 50.41 16.0425 50.53 15.2425 50.59L12.8725 50.81C11.8725 50.91 10.8725 51.03 9.87255 51.09H9.10255L8.32255 51C7.79255 50.94 7.27255 50.88 6.73255 50.77C6.39255 50.71 6.20255 50.58 6.25255 50.53C6.30255 50.48 6.46255 50.44 6.71255 50.28C7.0581 50.0719 7.39193 49.8449 7.71255 49.6L8.38255 49.12C8.50255 49.02 8.63255 48.96 8.76255 48.85L9.16255 48.72C11.1625 48.14 13.1625 47.53 15.1625 47.04C17.1625 46.74 19.2725 46.51 21.3725 46.4C23.8725 46.29 26.3725 45.66 28.9625 45.4C31.7625 45.12 34.5725 44.9 37.3825 44.71L42.5925 44.38C45.2125 44.21 47.8625 44.15 50.4725 43.97C51.4725 43.9 52.4725 43.78 53.4725 43.66L54.9925 43.48C55.2425 43.48 55.5025 43.41 55.7525 43.4H56.5225C56.9825 43.4 57.4225 43.4 57.8825 43.4C59.5725 43.6 60.1025 43.99 60.3425 44.98C60.4122 45.1855 60.4657 45.3962 60.5025 45.61C60.5825 46.24 59.8425 46.9 58.6825 47.13C57.8125 47.34 56.9425 47.55 56.0525 47.78C55.1749 47.9518 54.2859 48.0587 53.3925 48.1C51.6025 48.24 49.7625 48.36 47.9225 48.46C45.1825 48.63 42.4025 48.75 39.6325 48.97L39.6425 48.92Z" fill="white"/>
<path d="M40.3325 37.71C39.3325 38.71 38.3325 39.71 37.3325 40.71L34.2225 43.74C33.4625 44.48 32.8025 45.31 32.0025 46.04L30.8925 47.04C30.3303 47.5545 29.7247 48.0196 29.0825 48.43C28.7583 48.5795 28.4242 48.7064 28.0825 48.81C27.7481 48.8423 27.4107 48.8221 27.0825 48.75C26.3801 48.54 25.7409 48.1586 25.2225 47.64C24.9325 47.4 24.6625 47.14 24.3925 46.88L23.8425 46.28C23.5125 45.93 23.2025 45.56 22.9025 45.2L21.1325 43.03C20.1325 41.76 18.9925 40.55 17.8825 39.39C17.1239 38.6898 16.4217 37.9308 15.7825 37.12C15.1625 36.3 14.5725 35.44 13.9325 34.62C13.5425 34.11 13.7225 33.98 14.4025 34.02C15.4734 34.0915 16.5215 34.3629 17.4925 34.82L18.2325 35.23C18.4836 35.349 18.7161 35.504 18.9225 35.69L20.1225 36.79C20.9125 37.53 21.6825 38.28 22.4225 39.04C23.9025 40.56 25.3425 42.13 26.6425 43.67C26.7589 43.7818 26.8538 43.914 26.9225 44.06C26.9832 44.1448 27.05 44.225 27.1225 44.3C27.1952 44.3804 27.2886 44.4392 27.3925 44.47C27.4925 44.47 27.5725 44.39 27.6625 44.33C27.7441 44.2656 27.8209 44.1954 27.8925 44.12L28.3425 43.64L29.6425 42.24L35.5025 35.93L37.3825 34.02L39.4525 32.02C40.0996 31.3399 40.8364 30.7511 41.6425 30.27C42.0179 30.0959 42.4204 29.9877 42.8325 29.95C43.2222 30.0963 43.5816 30.3132 43.8925 30.59C44.6036 31.2107 45.2718 31.8789 45.8925 32.59L47.2725 34.08C48.7025 35.59 50.2725 36.9 51.8125 38.31C52.1525 38.62 52.5125 38.89 52.8125 39.22C52.9625 39.37 53.0925 39.52 53.2125 39.65C53.3325 39.78 53.3825 39.95 53.4525 40.08C53.5705 40.3197 53.6514 40.576 53.6925 40.84C53.7223 41.0683 53.7018 41.3004 53.6325 41.52C53.5319 41.7792 53.4046 42.0272 53.2525 42.26C53.1125 42.49 53.0125 42.72 52.8825 42.89C52.5325 43.4 51.2425 43.59 50.1625 42.89C49.7453 42.6667 49.3559 42.3948 49.0025 42.08C48.6325 41.79 48.2725 41.48 47.9225 41.17C47.2125 40.55 46.5325 39.9 45.8625 39.23C45.1925 38.56 44.5325 37.87 43.8625 37.23L42.8625 36.18L42.4725 35.75C42.4725 35.75 42.4725 35.75 42.4725 35.69C42.4725 35.63 42.4725 35.69 42.4025 35.69L42.2325 35.88L41.8725 36.25L40.4225 37.79L40.3325 37.71Z" fill="white"/>
<path d="M22.2224 57.64C22.6624 57.31 23.1024 57 23.5124 56.64C23.6624 56.52 23.7424 56.34 23.9024 56.23C24.4524 55.82 25.0424 55.45 25.5624 55.03C25.7803 54.8348 25.96 54.6009 26.0924 54.34C26.2724 54.01 26.3324 53.59 26.8124 53.49C27.1124 53.42 29.2624 55.37 29.0324 55.78C28.6058 56.4887 27.9699 57.0477 27.2124 57.38C26.7224 57.59 26.5224 58.06 26.2124 58.38C25.9024 58.7 25.4224 59.09 25.0324 59.44C24.6424 59.79 24.5424 59.87 24.3124 60.1C23.9627 60.4166 23.629 60.7503 23.3124 61.1C23.0924 61.39 23.0124 61.79 22.7724 62.1C22.741 62.1737 22.697 62.2414 22.6424 62.3C22.4124 62.51 22.2024 62.47 21.7124 62.18L21.3724 61.98C21.0531 61.7963 20.8303 61.482 20.7624 61.12C20.7022 60.6821 20.7022 60.2379 20.7624 59.8C20.8676 59.4531 21.0083 59.118 21.1824 58.8C21.3924 58.28 21.8824 57.99 22.2524 57.61L22.2224 57.64Z" fill="white"/>
<path d="M42.8527 61.28C42.8099 61.5618 42.715 61.8331 42.5727 62.08L42.2527 62.75L41.5927 64.13C41.4227 64.3 41.3227 64.59 41.1227 64.76C41.0843 64.7475 41.0474 64.7308 41.0127 64.71C39.3827 63.7584 37.8663 62.6244 36.4927 61.33L35.5827 60.47L35.1227 60.06L34.7627 59.51C34.4527 59.08 34.0327 58.8 33.8827 58.59C33.6652 58.347 33.5016 58.0608 33.4027 57.75C33.3427 57.53 33.7627 57.09 34.3127 56.75C34.8627 56.41 35.6027 56.07 35.9527 56.24L36.3927 56.46H36.4527C36.4527 56.46 36.4527 56.46 36.4527 56.55C36.4956 56.8335 36.5869 57.1075 36.7227 57.36C36.8033 57.5463 36.9226 57.7134 37.0727 57.85C37.1827 57.95 37.2427 57.93 37.3827 58.07C37.4149 58.0865 37.4451 58.1066 37.4727 58.13C37.5527 58.13 37.6727 58.31 37.7527 58.32C37.808 58.2999 37.8589 58.2693 37.9027 58.23C37.9961 58.1464 38.071 58.0443 38.1227 57.93C38.2104 57.7373 38.2645 57.531 38.2827 57.32C38.3799 56.8618 38.3799 56.3883 38.2827 55.93C38.1972 55.6158 38.0658 55.3159 37.8927 55.04C37.7527 54.74 37.5927 54.44 37.4727 54.12C37.4127 53.98 37.3127 53.84 37.3427 53.69C37.4027 53.1 37.7627 52.81 38.8027 52.69C39.0345 52.6552 39.2683 52.6351 39.5027 52.63C40.1515 52.5947 40.7985 52.7255 41.3827 53.01L41.8527 53.31C41.9723 53.4105 42.0797 53.5246 42.1727 53.65C42.3551 53.8865 42.5126 54.1412 42.6427 54.41C42.7338 54.6809 42.804 54.9584 42.8527 55.24V55.45L42.9127 55.87L43.0127 56.7C43.1641 58.243 43.1641 59.7971 43.0127 61.34L42.8527 61.28Z" fill="white"/>
<path d="M19.7527 15.72C20.0627 15.72 19.8327 16.11 19.3127 16.8C19.053 17.1088 18.7498 17.3783 18.4127 17.6C18.1882 17.6705 17.9569 17.7175 17.7227 17.74C17.1808 17.497 16.6533 17.2232 16.1427 16.92C15.7999 16.7303 15.5002 16.4715 15.2627 16.16C14.7627 15.56 14.2627 14.98 13.7627 14.38C13.6578 14.2364 13.5829 14.0732 13.5427 13.9C13.4014 13.3129 13.1002 12.7764 12.6727 12.35C12.6127 12.27 12.5727 12.17 12.4127 12.17C12.2527 12.17 11.2827 10.78 11.2727 10.54C11.195 9.9495 11.1483 9.35536 11.1327 8.75999C11.1327 8.67999 11.0627 8.61999 11.1327 8.48999C11.2769 8.32397 11.3084 8.088 11.2127 7.88999C11.1549 7.65109 11.128 7.40575 11.1327 7.15999C11.173 6.99652 11.2407 6.84101 11.3327 6.69999C11.4027 6.56999 11.8027 6.46999 11.8527 6.47999C11.9027 6.48999 12.1627 6.36999 12.3227 6.29999L12.4827 6.23999C12.7347 6.31745 12.979 6.41787 13.2127 6.53999C13.4784 6.64337 13.7388 6.76019 13.9927 6.88999C13.9927 6.88999 14.3227 7.18999 14.7127 7.47999C15.1027 7.76999 15.3827 8.13999 15.4727 8.18999C15.5627 8.23999 15.5527 8.38999 15.5627 8.49999C15.5727 8.60999 16.6327 9.49999 16.6627 9.49999C16.7927 9.74999 17.0727 9.90999 16.9627 10.33C16.9627 10.42 16.9627 10.45 17.0227 10.5C17.3232 10.8968 17.5719 11.3303 17.7627 11.79C17.8955 12.0054 18.046 12.2095 18.2127 12.4C18.2127 12.4 18.2127 12.5 18.2127 12.55C18.2127 12.6 18.2127 12.69 18.2627 12.73C18.5785 13.2375 18.9472 13.7102 19.3627 14.14C19.4827 14.22 19.5927 14.98 19.7327 15.06C19.8727 15.14 19.6327 15.72 19.7527 15.72Z" fill="white"/>
<path d="M48.4323 12.71C48.5223 13.02 48.0523 12.98 47.2523 12.71C46.8926 12.5577 46.556 12.3557 46.2523 12.11C46.1202 11.9229 46.0031 11.7257 45.9023 11.52C45.9023 11.42 46.0323 10.21 46.0523 9.78C46.0697 9.38527 46.1648 8.99785 46.3323 8.64C46.6523 7.92 46.9323 7.18 47.2423 6.46C47.3116 6.29208 47.4175 6.14176 47.5523 6.02C48.0045 5.59672 48.3241 5.05134 48.4723 4.45C48.4723 4.35 48.5723 4.27 48.4723 4.12C48.5468 3.43896 48.7872 2.78658 49.1723 2.22L50.4623 1.05C50.5223 1 50.4623 0.9 50.6923 0.91C50.9107 0.957455 51.1323 0.844562 51.2223 0.64C51.3634 0.440458 51.5356 0.264884 51.7323 0.12C51.9033 0.0466446 52.0864 0.00594333 52.2723 0C52.5152 0.0454263 52.7423 0.152134 52.9323 0.31C53.0423 0.48 53.3023 0.51 53.5123 0.6L53.7223 0.7C53.9351 1.27611 54.0696 1.87814 54.1223 2.49C54.1223 2.49 54.0123 2.98 53.9023 3.49C53.7923 4 53.6223 4.49 53.6223 4.62C53.6223 4.75 53.4723 4.8 53.3823 4.88C53.2923 4.96 52.9623 6.44 52.9323 6.49C52.7523 6.76 52.7423 7.1 52.3123 7.25C52.2223 7.25 52.2123 7.35 52.1923 7.41C51.9651 7.91158 51.6798 8.38481 51.3423 8.82C51.205 9.06627 51.0815 9.32 50.9723 9.58C50.9723 9.63 50.8823 9.65 50.8423 9.69C50.8023 9.73 50.7223 9.77 50.7023 9.83C50.365 10.4109 50.0708 11.0159 49.8223 11.64C49.8223 11.8 49.1023 12.28 49.0623 12.47C49.0223 12.66 48.3923 12.64 48.4323 12.71Z" fill="white"/>
<path d="M38.2225 38.82L36.0625 40.98C35.8025 41.25 35.5825 41.56 35.3225 41.82C34.3925 42.76 33.4425 43.69 32.5425 44.65C32.1425 45.08 31.7725 45.54 31.4125 46C30.9814 46.6683 30.4034 47.2292 29.7225 47.64C29.4525 47.78 29.3625 47.47 29.2925 47.09C29.1486 46.6995 29.1486 46.2705 29.2925 45.88C29.6602 45.2296 30.0996 44.6225 30.6025 44.07C31.1128 43.4789 31.6535 42.9148 32.2225 42.38C32.8583 41.6926 33.4527 40.968 34.0025 40.21C34.6625 39.41 35.3425 38.63 36.0025 37.86L37.3125 36.46C37.9725 35.75 38.6625 35.06 39.3125 34.33C39.8025 33.76 40.2025 33.12 40.7225 32.51C40.8425 32.38 40.9425 32.23 41.0625 32.11C41.2433 31.9395 41.4867 31.8513 41.7348 31.8665C41.9829 31.8816 42.2137 31.9987 42.3725 32.19L42.6125 32.43C42.7186 32.5787 42.7747 32.7573 42.7725 32.94C42.789 33.1573 42.7583 33.3757 42.6825 33.58C42.5796 33.8788 42.4238 34.1565 42.2225 34.4C42.0325 34.63 41.8425 34.91 41.6325 35.15C41.2225 35.63 40.7725 36.15 40.3125 36.63L38.2425 38.86L38.2225 38.82Z" fill="white"/>
</svg>
