<svg width="522" height="592" viewBox="0 0 522 592" fill="none" xmlns="http://www.w3.org/2000/svg">
<path d="M71.9539 103.673C83.0339 103.673 88.3539 98.5127 88.3539 89.2327C88.3539 79.9927 83.0339 74.8727 71.9539 74.8727C60.8339 74.8727 55.5539 79.9527 55.5539 89.2327C55.5539 98.5527 60.8339 103.673 71.9539 103.673ZM71.9539 97.6327C65.6339 97.6327 62.7539 94.5127 62.7539 89.2327C62.7539 83.9927 65.6339 80.9127 71.9539 80.9127C78.2739 80.9127 81.1539 84.0327 81.1539 89.2327C81.1539 94.4727 78.2739 97.6327 71.9539 97.6327ZM118.189 89.2727C120.869 87.9927 122.509 86.0727 122.509 83.1527C122.509 76.9527 116.869 74.8727 107.029 74.8727C97.3092 74.8727 90.7492 76.9527 90.7492 85.8727H97.9492C97.9492 81.6327 100.589 80.9127 107.429 80.9127C113.629 80.9127 115.309 81.6327 115.309 84.0727C115.309 86.8727 112.949 87.1127 103.429 87.1127V91.4327C113.149 91.4327 115.309 91.6727 115.309 94.4727C115.309 97.1527 113.149 97.6327 107.429 97.6327C101.269 97.6327 97.9492 97.1527 97.9492 92.6727H90.7492C90.7492 101.593 97.3092 103.673 107.029 103.673C116.869 103.673 122.509 101.593 122.509 95.3927C122.509 92.4727 120.869 90.5527 118.189 89.2727Z" fill="white"/>
<path d="M1 50C1 22.9381 22.938 1 50 1H133.405C160.467 1 182.405 22.938 182.405 50V88.5532C182.405 116.72 205.239 139.553 233.405 139.553H472C499.062 139.553 521 161.491 521 188.553V542C521 569.062 499.062 591 472 591H50C22.938 591 1 569.062 1 542V50Z" stroke="white" stroke-width="2"/>
</svg>
