<svg width="152" height="134" viewBox="0 0 152 134" fill="none" xmlns="http://www.w3.org/2000/svg">
<g clip-path="url(#clip0_19_46)">
<path d="M151.466 65.4817L69.7407 112.31L0.534546 88.9217L80.1556 42.0934L151.466 65.4817Z" fill="white"/>
<path d="M69.7392 112.806C69.6772 112.806 69.6156 112.797 69.5568 112.779L0.352096 89.3889C0.258249 89.3573 0.175829 89.3018 0.114178 89.2289C0.0525258 89.1559 0.0141075 89.0684 0.00327632 88.9762C-0.00755481 88.8841 0.0096344 88.7909 0.0528959 88.7073C0.0961574 88.6237 0.163761 88.5531 0.248046 88.5034L79.8706 41.6738C79.9385 41.6325 80.0159 41.6066 80.0966 41.5981C80.1773 41.5896 80.259 41.5987 80.3352 41.6248L151.644 65.0145C151.739 65.0453 151.823 65.1006 151.885 65.174C151.948 65.2473 151.987 65.3357 151.997 65.4288C152.008 65.5221 151.99 65.6162 151.945 65.7005C151.901 65.7847 151.832 65.8557 151.746 65.9053L70.02 112.734C69.9356 112.782 69.8383 112.807 69.7392 112.806ZM1.73896 88.8012L69.6794 111.762L150.231 65.6048L80.2226 42.6401L1.73896 88.8012Z" fill="black"/>
<path d="M131.95 37.945L50.2234 84.7732L0.534546 67.8922L79.6496 21.0639L131.95 37.945Z" fill="white"/>
<path d="M50.2249 85.2709C50.1622 85.2707 50.0999 85.2604 50.041 85.2405L0.350703 68.3594C0.256945 68.3276 0.174653 68.2721 0.113149 68.199C0.051644 68.126 0.0133843 68.0385 0.00270296 67.9463C-0.00797835 67.8541 0.00934557 67.761 0.0527125 67.6775C0.0960795 67.594 0.163756 67.5235 0.248078 67.4739L79.3617 20.6496C79.4289 20.6096 79.5047 20.5839 79.5838 20.5743C79.6629 20.5647 79.7433 20.5714 79.8193 20.594L132.129 37.475C132.225 37.5057 132.309 37.561 132.373 37.6345C132.436 37.708 132.475 37.7966 132.486 37.8901C132.497 37.9836 132.48 38.0781 132.435 38.1625C132.391 38.247 132.321 38.318 132.235 38.3672L50.5042 85.1968C50.4204 85.2452 50.3236 85.2709 50.2249 85.2709ZM1.73329 67.773L50.1721 84.2252L130.713 38.0694L79.7181 21.6119L1.73329 67.773Z" fill="black"/>
<path d="M112.434 10.4082L30.7076 57.2365L0.534546 47.326L82.2609 0.497711L112.434 10.4082Z" fill="white"/>
<path d="M30.7078 57.7328C30.647 57.7329 30.5867 57.723 30.5296 57.7037L0.3565 47.7945C0.261312 47.7633 0.177565 47.7078 0.114948 47.6343C0.0523312 47.5608 0.0134029 47.4723 0.00266691 47.3791C-0.00806911 47.2859 0.00982585 47.1918 0.0542815 47.1077C0.0987372 47.0235 0.167937 46.9528 0.253875 46.9037L81.9802 0.0740763C82.0481 0.0350284 82.1247 0.0107045 82.2041 0.00291278C82.2836 -0.00487894 82.3639 0.00406195 82.4392 0.0290708L112.612 9.93955C112.707 9.9707 112.791 10.0262 112.854 10.0997C112.916 10.1733 112.955 10.2617 112.966 10.3549C112.977 10.4481 112.959 10.5422 112.914 10.6264C112.87 10.7105 112.801 10.7813 112.715 10.8304L30.9885 57.6587C30.9042 57.7071 30.8069 57.7327 30.7078 57.7328ZM1.77329 47.2041L30.645 56.6897L111.203 10.5299L82.3237 1.04434L1.77329 47.2041Z" fill="black"/>
<path d="M30.7076 57.2365V78.4301L112.434 31.6018V10.4082L30.7076 57.2365Z" fill="white"/>
<path d="M30.7076 78.9265C30.6167 78.9266 30.5272 78.9047 30.4482 78.8629C30.3651 78.8199 30.2958 78.7572 30.2475 78.6811C30.1991 78.6051 30.1735 78.5184 30.1731 78.4301V57.2365C30.1734 57.1517 30.1968 57.0684 30.2412 56.9943C30.2856 56.9202 30.3494 56.8578 30.4268 56.8129L112.153 9.98594C112.234 9.93952 112.327 9.91401 112.422 9.91205C112.517 9.91009 112.611 9.93175 112.694 9.97479C112.777 10.0178 112.847 10.0807 112.895 10.1569C112.943 10.2331 112.968 10.3198 112.968 10.4082V31.6018C112.969 31.6865 112.945 31.7698 112.901 31.8437C112.856 31.9176 112.792 31.9797 112.715 32.0241L30.9884 78.8523C30.904 78.9006 30.8068 78.9263 30.7076 78.9265ZM31.2421 57.5131V77.5406L111.899 31.3252V11.2977L31.2421 57.5131Z" fill="black"/>
<path d="M69.7406 112.31V133.504L151.465 86.6754V65.4817L69.7406 112.31Z" fill="white"/>
<path d="M69.7392 134C69.6483 134 69.5589 133.978 69.4798 133.936C69.3965 133.894 69.3271 133.831 69.2787 133.755C69.2303 133.679 69.2048 133.592 69.2047 133.504V112.31C69.2049 112.225 69.2284 112.142 69.2731 112.068C69.3177 111.994 69.382 111.932 69.4598 111.888L151.186 65.0595C151.267 65.0134 151.36 64.9882 151.455 64.9864C151.55 64.9846 151.643 65.0063 151.726 65.0493C151.809 65.0923 151.878 65.155 151.926 65.231C151.974 65.307 152 65.3936 152 65.4817V86.6754C152 86.76 151.977 86.8433 151.932 86.9172C151.888 86.9911 151.824 87.0533 151.746 87.0976L70.02 133.926C69.9356 133.974 69.8384 134 69.7392 134ZM70.2694 112.587V132.614L150.927 86.3987V66.3712L70.2694 112.587Z" fill="black"/>
<path d="M131.95 37.945V59.1386L50.2234 105.967V84.7732L131.95 37.945Z" fill="white"/>
<path d="M50.2248 106.463C50.1333 106.464 50.0433 106.442 49.964 106.4C49.8809 106.357 49.8116 106.294 49.7635 106.218C49.7154 106.142 49.6901 106.055 49.6903 105.967V84.7745C49.6904 84.6897 49.7137 84.6063 49.7581 84.5322C49.8025 84.4581 49.8665 84.3957 49.944 84.351L131.67 37.5214C131.751 37.4752 131.844 37.45 131.939 37.4483C132.034 37.4465 132.128 37.4684 132.211 37.5115C132.294 37.5547 132.363 37.6176 132.411 37.6938C132.459 37.77 132.484 37.8567 132.484 37.945V59.1386C132.484 59.2234 132.461 59.3068 132.416 59.3809C132.372 59.455 132.308 59.5174 132.23 59.5622L50.5042 106.39C50.4201 106.438 50.3234 106.463 50.2248 106.463ZM50.7593 85.0512V105.077L131.417 58.8619V38.8332L50.7593 85.0512Z" fill="black"/>
<path d="M69.7392 134C69.6754 134 69.6122 133.989 69.5525 133.968L0.346358 109.796C0.245388 109.761 0.158237 109.699 0.0964018 109.617C0.0345669 109.535 0.000954754 109.437 0 109.337L0 47.3273C0 47.1957 0.0563136 47.0694 0.156552 46.9763C0.256791 46.8832 0.392744 46.8309 0.534504 46.8309C0.676263 46.8309 0.812216 46.8832 0.912455 46.9763C1.01269 47.0694 1.06901 47.1957 1.06901 47.3273V108.989L69.9273 133.039C70.0445 133.08 70.1425 133.158 70.2042 133.259C70.2659 133.36 70.2875 133.478 70.2651 133.592C70.2427 133.707 70.1778 133.81 70.0817 133.885C69.9856 133.959 69.8644 134 69.7392 134Z" fill="black"/>
</g>
<defs>
<clipPath id="clip0_19_46">
<rect width="152" height="134" fill="white"/>
</clipPath>
</defs>
</svg>
