<svg width="226" height="197" viewBox="0 0 226 197" fill="none" xmlns="http://www.w3.org/2000/svg">
<rect width="226" height="197" rx="20" fill="white"/>
<path d="M32.512 30.64H35.488V40H37.728V30.64H40.704V28.832H32.512V30.64ZM44.5784 35.584C44.5784 33.872 45.3784 33.36 46.7064 33.36H47.2984V31.008C46.0664 31.008 45.1384 31.6 44.5784 32.512V31.136H42.3384V40H44.5784V35.584ZM48.2311 35.536C48.2311 38.304 50.0231 40.144 52.2631 40.144C53.6711 40.144 54.6791 39.472 55.2071 38.704V40H57.4631V31.136H55.2071V32.4C54.6791 31.664 53.7031 30.992 52.2791 30.992C50.0231 30.992 48.2311 32.768 48.2311 35.536ZM55.2071 35.568C55.2071 37.248 54.0871 38.176 52.8551 38.176C51.6551 38.176 50.5191 37.216 50.5191 35.536C50.5191 33.856 51.6551 32.96 52.8551 32.96C54.0871 32.96 55.2071 33.888 55.2071 35.568ZM59.0749 35.568C59.0749 38.352 60.8989 40.144 63.4589 40.144C65.6669 40.144 67.1549 38.896 67.6349 37.008H65.2189C64.9469 37.808 64.3709 38.224 63.4429 38.224C62.1949 38.224 61.3629 37.296 61.3629 35.568C61.3629 33.84 62.1949 32.896 63.4429 32.896C64.3709 32.896 64.9629 33.376 65.2189 34.128H67.6349C67.1549 32.144 65.6669 30.992 63.4589 30.992C60.8989 30.992 59.0749 32.784 59.0749 35.568ZM69.2759 40H71.5159V36.224L74.5239 40H77.4359L73.4999 35.584L77.4039 31.136H74.4919L71.5159 34.896V28.16H69.2759V40ZM82.4321 40H84.6721V28.16H82.4321V40ZM90.6933 32.832C91.8453 32.832 92.7733 33.568 92.8053 34.736H88.5973C88.7733 33.52 89.6213 32.832 90.6933 32.832ZM94.9013 37.216H92.4853C92.1973 37.808 91.6693 38.288 90.7093 38.288C89.5893 38.288 88.6933 37.552 88.5813 36.24H95.0613C95.1093 35.952 95.1253 35.664 95.1253 35.376C95.1253 32.736 93.3173 30.992 90.7573 30.992C88.1332 30.992 86.3092 32.768 86.3092 35.568C86.3092 38.352 88.1813 40.144 90.7573 40.144C92.9493 40.144 94.4213 38.848 94.9013 37.216ZM96.1842 35.536C96.1842 38.304 97.9763 40.144 100.216 40.144C101.624 40.144 102.632 39.472 103.16 38.704V40H105.416V31.136H103.16V32.4C102.632 31.664 101.656 30.992 100.232 30.992C97.9763 30.992 96.1842 32.768 96.1842 35.536ZM103.16 35.568C103.16 37.248 102.04 38.176 100.808 38.176C99.6083 38.176 98.4723 37.216 98.4723 35.536C98.4723 33.856 99.6083 32.96 100.808 32.96C102.04 32.96 103.16 33.888 103.16 35.568ZM109.844 35.584C109.844 33.872 110.644 33.36 111.972 33.36H112.564V31.008C111.332 31.008 110.404 31.6 109.844 32.512V31.136H107.604V40H109.844V35.584ZM120.281 40H122.521V34.8C122.521 32.352 121.049 31.008 118.985 31.008C117.849 31.008 116.889 31.488 116.313 32.24V31.136H114.073V40H116.313V35.104C116.313 33.68 117.097 32.912 118.313 32.912C119.497 32.912 120.281 33.68 120.281 35.104V40ZM124.651 40H126.891V31.136H124.651V40ZM125.787 30.08C126.571 30.08 127.163 29.504 127.163 28.768C127.163 28.032 126.571 27.456 125.787 27.456C124.987 27.456 124.411 28.032 124.411 28.768C124.411 29.504 124.987 30.08 125.787 30.08ZM135.312 40H137.552V34.8C137.552 32.352 136.08 31.008 134.016 31.008C132.88 31.008 131.92 31.488 131.344 32.24V31.136H129.104V40H131.344V35.104C131.344 33.68 132.128 32.912 133.344 32.912C134.528 32.912 135.312 33.68 135.312 35.104V40ZM139.106 35.536C139.106 38.304 140.898 40.144 143.154 40.144C144.546 40.144 145.554 39.456 146.082 38.688V40.064C146.082 41.712 145.122 42.416 143.89 42.416C142.77 42.416 141.938 41.888 141.714 41.088H139.49C139.714 43.12 141.458 44.368 143.954 44.368C146.866 44.368 148.338 42.464 148.338 40.064V31.136H146.082V32.4C145.554 31.632 144.546 30.992 143.154 30.992C140.898 30.992 139.106 32.768 139.106 35.536ZM146.082 35.568C146.082 37.248 144.962 38.176 143.73 38.176C142.53 38.176 141.394 37.216 141.394 35.536C141.394 33.856 142.53 32.96 143.73 32.96C144.962 32.96 146.082 33.888 146.082 35.568ZM154.338 40H156.578V35.104C156.578 33.68 157.362 32.912 158.578 32.912C159.762 32.912 160.546 33.68 160.546 35.104V40H162.786V34.8C162.786 32.352 161.33 31.008 159.33 31.008C158.146 31.008 157.154 31.488 156.578 32.24V28.16H154.338V40ZM164.34 35.536C164.34 38.304 166.133 40.144 168.373 40.144C169.781 40.144 170.789 39.472 171.317 38.704V40H173.573V31.136H171.317V32.4C170.789 31.664 169.813 30.992 168.389 30.992C166.133 30.992 164.34 32.768 164.34 35.536ZM171.317 35.568C171.317 37.248 170.197 38.176 168.965 38.176C167.765 38.176 166.629 37.216 166.629 35.536C166.629 33.856 167.765 32.96 168.965 32.96C170.197 32.96 171.317 33.888 171.317 35.568ZM178 32.432V28.16H175.76V40H178V38.736C178.544 39.504 179.536 40.144 180.928 40.144C183.2 40.144 184.976 38.304 184.976 35.536C184.976 32.768 183.2 30.992 180.928 30.992C179.584 30.992 178.544 31.616 178 32.432ZM182.688 35.536C182.688 37.216 181.552 38.176 180.336 38.176C179.136 38.176 178 37.248 178 35.568C178 33.888 179.136 32.96 180.336 32.96C181.552 32.96 182.688 33.856 182.688 35.536ZM186.604 40H188.844V31.136H186.604V40ZM187.74 30.08C188.524 30.08 189.116 29.504 189.116 28.768C189.116 28.032 188.524 27.456 187.74 27.456C186.94 27.456 186.364 28.032 186.364 28.768C186.364 29.504 186.94 30.08 187.74 30.08ZM191.409 37.248C191.409 39.28 192.545 40 194.241 40H195.649V38.112H194.609C193.905 38.112 193.665 37.856 193.665 37.264V32.976H195.649V31.136H193.665V28.944H191.409V31.136H190.353V32.976H191.409V37.248Z" fill="black"/>
<rect x="20" y="89" width="12" height="86" rx="6" fill="url(#paint0_linear_49_182)"/>
<rect x="49" y="117" width="12" height="58" rx="6" fill="url(#paint1_linear_49_182)"/>
<rect x="78" y="60" width="12" height="115" rx="6" fill="url(#paint2_linear_49_182)"/>
<rect x="107" y="129" width="12" height="46" rx="6" fill="url(#paint3_linear_49_182)"/>
<rect x="136" y="89" width="12" height="86" rx="6" fill="url(#paint4_linear_49_182)"/>
<rect x="165" y="60" width="12" height="115" rx="6" fill="url(#paint5_linear_49_182)"/>
<rect x="194" y="73" width="12" height="102" rx="6" fill="url(#paint6_linear_49_182)"/>
<defs>
<linearGradient id="paint0_linear_49_182" x1="26" y1="89" x2="26" y2="175" gradientUnits="userSpaceOnUse">
<stop stop-color="#E8A5FF"/>
<stop offset="1" stop-color="#231F20"/>
</linearGradient>
<linearGradient id="paint1_linear_49_182" x1="55" y1="117" x2="55" y2="175" gradientUnits="userSpaceOnUse">
<stop stop-color="#E8A5FF"/>
<stop offset="1" stop-color="#231F20"/>
</linearGradient>
<linearGradient id="paint2_linear_49_182" x1="84" y1="60" x2="84" y2="175" gradientUnits="userSpaceOnUse">
<stop stop-color="#E8A5FF"/>
<stop offset="1" stop-color="#231F20"/>
</linearGradient>
<linearGradient id="paint3_linear_49_182" x1="113" y1="129" x2="113" y2="175" gradientUnits="userSpaceOnUse">
<stop stop-color="#E8A5FF"/>
<stop offset="1" stop-color="#231F20"/>
</linearGradient>
<linearGradient id="paint4_linear_49_182" x1="142" y1="89" x2="142" y2="175" gradientUnits="userSpaceOnUse">
<stop stop-color="#E8A5FF"/>
<stop offset="1" stop-color="#231F20"/>
</linearGradient>
<linearGradient id="paint5_linear_49_182" x1="171" y1="60" x2="171" y2="175" gradientUnits="userSpaceOnUse">
<stop stop-color="#E8A5FF"/>
<stop offset="1" stop-color="#231F20"/>
</linearGradient>
<linearGradient id="paint6_linear_49_182" x1="200" y1="73" x2="200" y2="175" gradientUnits="userSpaceOnUse">
<stop stop-color="#E8A5FF"/>
<stop offset="1" stop-color="#231F20"/>
</linearGradient>
</defs>
</svg>
