<?xml version="1.0" encoding="utf-8"?>
<!-- Generator: Adobe Illustrator 26.3.0, SVG Export Plug-In . SVG Version: 6.00 Build 0)  -->
<svg version="1.1" id="Layer_1" xmlns="http://www.w3.org/2000/svg" xmlns:xlink="http://www.w3.org/1999/xlink" x="0px" y="0px"
	 viewBox="0 0 122 125" style="enable-background:new 0 0 122 125;" xml:space="preserve">
<style type="text/css">
	.st0{fill:#E8A5FF;}
</style>
<path class="st0" d="M55.5,78.9l0.5-0.5c25.3,24.3,51.7,35.7,61.4,26.5c10.5-10-2.5-40.8-29-68.6C61.9,8.5,31.8-5.9,21.3,4.1
	c-6.6,6.3-4.2,20.9,6.4,39l0.1,0.2l-0.3,0.3l-0.2-0.2l-0.2,0.1C16.4,25.1,14,10.2,20.8,3.7C31.6-6.6,62.1,7.8,88.9,35.9
	c26.8,28,39.7,59.2,29,69.5C107.9,114.9,81.1,103.5,55.5,78.9z"/>
<path class="st0" d="M42.4,98.1l0.5-0.5c24.4,22.2,48.7,31.9,57.8,23.2c10.5-10-2.5-40.8-29-68.6C45.2,24.4,15.1,10,4.6,20
	c-6.5,6.2-4.2,20.7,6.2,38.7L27,43.2l0.4,0.5L10.6,59.7l-0.2-0.3C-0.3,40.9-2.7,26,4.2,19.5C15,9.3,45.5,23.7,72.2,51.8
	c26.8,28,39.7,59.2,29,69.5C91.8,130.2,67.1,120.5,42.4,98.1z"/>
<path class="st0" d="M21.3,4.1l-0.4-0.5L4.2,19.5L4.6,20L21.3,4.1z"/>
<path class="st0" d="M117.9,105.4l-0.4-0.5l-16.7,15.9l0.4,0.5L117.9,105.4z"/>
<path class="st0" d="M25.2,104l3-37.2l37.3-1.2L54.1,76.5c17.6,17.4,37,29.4,50.6,31.3l-0.2,0.7c-13.8-1.9-33.4-14-51.2-31.7
	l-0.2-0.2l10.7-10.2l-35,1.1L26,102.4L37,92l0.2,0.2c25.7,25.5,53.6,38.1,63.6,28.6l0.4,0.5C91,131,62.8,118.5,36.9,92.9L25.2,104z"
	/>
</svg>
