<svg width="316" height="297" viewBox="0 0 316 297" fill="none" xmlns="http://www.w3.org/2000/svg">
<path d="M82.5488 296.005L81.6844 295.564C99.6446 260.593 104.614 246.128 103.573 244.938H103.561C103.239 244.938 100.055 245.829 82.5332 275.115L81.7 274.618C96.0516 250.629 98.682 240.368 96.3556 238.765C93.403 236.728 80.1616 247.243 58.0778 275.167L57.317 274.566C81.383 244.136 87.7372 231.025 86.1366 229.635C85.0356 228.684 77.8947 232.626 58.0481 253.41L57.3455 252.74C77.676 231.45 82.3689 224.059 81.9368 223.049C80.8279 222.56 71.4758 228.238 44.0717 253.438L43.4144 252.723C69.8689 228.402 82.7804 192.711 73.4464 169.702C68.5517 157.635 58.0494 151.176 43.7547 151.581L43.7366 150.851C32.9199 150.992 18.2616 151.23 0.146207 151.581L0.129387 150.611C26.7714 150.094 44.1209 143.749 45.4044 134.049C46.8057 123.427 28.9826 111.142 0 102.739L0.270418 101.808C44.2179 114.55 66.0079 116.698 66.9046 114.148C67.0612 113.699 66.8205 111.044 46.609 102.722L46.979 101.825C58.8994 106.739 68.0471 105.655 73.4179 98.7136C84.8363 83.9535 77.7614 42.2386 46.4046 0.583217L47.1809 0C75.1401 37.1513 103.257 47.2341 117.558 40.8756C123.972 38.0229 128.039 31.9269 129.576 23.3054C129.305 22.1131 129.024 20.8691 128.735 19.5733L129.683 19.3612C129.774 19.7673 129.868 20.1721 129.966 20.5716C130.563 13.8199 130.147 7.01686 128.732 0.387949L129.684 0.203027C132.933 16.8848 134.957 28.0992 136.189 35.6512C139.509 41.033 143.976 45.6172 149.27 49.0774C154.565 52.5376 160.558 54.7888 166.822 55.6707C195.675 60.2963 221.501 40.692 234.318 19.2216L235.151 19.7195C215.558 52.5464 211.371 66.4363 213.342 67.7618C213.66 67.9777 216.965 69.2011 234.348 46.1983L235.124 46.7815C220.837 65.6862 217.59 73.947 219.15 75.2763C220.711 76.6057 230.262 72.2038 255.319 46.153L256.019 46.8255C237.879 65.685 222.836 89.0485 229.185 97.2175C232.583 101.595 242.151 99.7883 255.43 92.2659L255.908 93.1091C238.725 102.845 238.616 106.198 238.993 106.994C240.546 110.282 261.042 107.878 301.717 92.2349L302.065 93.1401C274.764 103.644 258.559 117.334 260.797 128.018C262.729 137.238 278.091 142.103 301.87 141.016L301.912 141.985C287.391 142.645 275.089 143.165 266.202 143.497C252.075 145.654 246.535 149.316 246.361 152.521C246.185 155.883 251.094 158.936 258.149 161.472C260.478 161.472 264.509 161.691 271.526 162.297C282.605 163.254 297.949 164.939 315.899 167.17L315.781 168.132C300.065 166.178 289.081 166.21 281.872 167.373L281.751 168.129L279.637 167.793C273.914 169.041 271.131 171.115 270.602 173.398C269.308 178.947 280.429 189.781 315.997 202.057L315.682 202.974C295.323 195.947 275.778 190.805 260.643 188.49C246.829 186.379 237.777 186.847 236.426 189.741C235.767 191.152 236.515 194.637 248.936 202.097L248.437 202.928C237.36 196.274 229.139 195.027 225.29 199.42C218.762 206.866 224.878 231.147 249.066 261.483L248.307 262.087C225.178 233.081 202.851 225.552 191.895 230.832C183.556 234.853 180.973 245.806 184.623 261.677L183.679 261.893C179.5 243.733 177.746 239.696 177.162 238.802C176.551 241.409 177.996 258.241 184.628 295.701L183.674 295.871C179.52 272.418 165.689 256.708 146.669 253.843C122.721 250.245 97.5576 266.78 82.5488 296.005ZM140.114 252.384C142.357 252.384 144.596 252.551 146.814 252.885C163.008 255.324 175.52 266.825 181.697 284.391C179.669 272.303 178.114 261.84 177.14 253.707C175.257 237.982 176.313 237.768 176.943 237.64C177.543 237.527 178.561 237.305 182.103 251.196C181.559 240.592 184.76 233.203 191.477 229.963C203.41 224.211 222.742 233.125 240.755 251.947C224.516 228.551 217.586 206.741 224.566 198.781C227.774 195.123 233.595 194.95 241.315 198.172C236.474 194.466 234.538 191.502 235.552 189.33C238.416 183.199 265.424 186.539 298.962 196.563C279.122 188.066 268.189 179.514 269.661 173.177C270.258 170.607 272.871 168.671 277.237 167.401C254.724 163.731 254.843 162.858 254.933 162.212C254.966 161.995 254.998 161.764 255.725 161.62C248.883 158.833 245.229 155.692 245.398 152.468C245.589 148.813 250.739 145.793 259.84 143.726C251.603 144.016 251.599 143.932 251.572 143.374C251.563 143.189 251.556 143.047 252.179 142.908V142.891H252.225C253.907 142.531 259.859 142.168 280.698 141.067C268.665 139.152 261.203 134.701 259.842 128.208C257.935 119.096 268.511 108.022 287.545 98.4524C260.126 107.971 240.16 111.731 238.112 107.402C237.159 105.389 239.923 102.177 246.35 97.8175C237.498 101.428 231.262 101.469 228.414 97.8059C223.498 91.4862 230.034 76.0936 244.556 58.257C232.531 69.7287 221.414 78.4782 218.516 76.0083C216.317 74.1371 220.052 66.9419 224.975 59.395C219.598 65.5362 214.773 69.8929 212.799 68.5597C209.27 66.188 217.684 48.3113 228.306 29.5462C212.246 49.4609 188.648 60.1412 166.666 56.6186C160.633 55.7671 154.842 53.6732 149.661 50.4694C144.48 47.2655 140.02 43.0216 136.565 38.0061C138.615 51.0593 137.894 51.2093 137.504 51.2895C136.883 51.4291 136.029 51.5817 130.092 25.5749C128.237 33.4166 124.134 39.007 117.952 41.7563C102.095 48.8079 77.1947 36.312 54.8652 10.979C77.5078 45.822 86.2427 83.7155 74.1839 99.302C71.0178 103.395 65.2562 107.249 55.0528 105.314C68.8092 111.632 68.0807 113.709 67.8168 114.463C66.3832 118.571 42.2875 114.064 16.1617 107.202C36.293 115.22 47.5677 125.048 46.3619 134.163C45.3074 142.145 34.818 147.837 17.4633 150.277C29.2686 150.07 39.7709 149.911 47.9805 149.814C66.1529 149.601 66.1503 149.602 66.1658 150.273C66.1658 150.48 66.1749 150.625 65.5499 150.744C64.4372 150.955 61.3384 151.083 52.7277 151.323C57.5795 152.202 62.1208 154.322 65.9093 157.476C69.6979 160.63 72.6043 164.711 74.3456 169.322C78.7616 180.206 78.3993 194.489 73.3261 209.539C69.0587 221.891 62.4744 233.317 53.9258 243.205C66.5126 232.039 80.6519 220.369 82.6497 222.376C83.7973 223.54 80.3556 228.728 72.3958 237.833C79.2416 231.589 85.0149 227.359 86.7797 228.893C89.5473 231.295 80.3104 245.408 71.2184 257.892C84.2994 243.173 93.7097 235.755 96.9133 237.956C99.8633 239.99 96.6377 248.734 91.9823 258.066C101.902 242.917 103.464 243.761 104.067 244.092C106.889 245.658 96.8538 267.341 88.67 283.875C102.398 264.025 121.296 252.379 140.112 252.379L140.114 252.384ZM261.339 162.542C267.351 164.357 273.474 165.783 279.669 166.809C284.618 165.894 289.648 165.498 294.678 165.628C277.923 163.734 267.213 162.824 261.337 162.536L261.339 162.542ZM256.767 162.458C257.493 162.686 258.742 163.014 260.888 163.47C259.82 163.133 258.802 162.788 257.834 162.436H257.826C257.409 162.432 257.058 162.438 256.764 162.452L256.767 162.458ZM281.819 141.25L281.854 141.905L285.959 141.728C284.525 141.593 283.144 141.43 281.816 141.241L281.819 141.25ZM132.104 29.9393C134.932 42.0498 136.361 47.0091 137.059 49.0445C136.909 46.8979 136.322 42.5619 135.242 35.9616C134.059 34.0283 133.011 32.0162 132.104 29.9393ZM130.619 22.9808C131.64 26.5316 133.036 29.9636 134.785 33.2188C133.883 27.8573 132.692 21.2234 131.214 13.317C131.319 16.55 131.117 19.7857 130.612 22.9808H130.619Z" fill="white"/>
</svg>
