<svg width="83" height="114" viewBox="0 0 83 114" fill="none" xmlns="http://www.w3.org/2000/svg">
<path d="M31.5528 57.4444C31.5528 57.4444 37.3712 61.0548 37.2675 64.7662C37.1767 68.2344 30.8585 68.1514 30.8585 68.1514C30.8585 68.1514 40.8268 72.0168 42.0194 68.1038C43.212 64.1908 40.5325 59.2792 37.7916 58.7525C35.0507 58.2258 31.5528 57.4444 31.5528 57.4444Z" fill="white"/>
<path d="M32.0441 59.913C29.998 58.9876 27.7884 58.475 25.5444 58.4051C23.4254 58.3223 21.3206 58.757 19.415 59.671L18.9509 59.9361L18.7433 60.0753C18.7433 60.0753 18.7271 60.1358 18.7174 60.1722C18.5755 60.3119 18.4469 60.4643 18.3333 60.6276C17.99 61.1918 17.6842 61.7777 17.4179 62.3817C16.1964 65.2149 15.3295 68.1874 14.8367 71.2328C14.2616 74.4837 13.8977 77.7689 13.7472 81.0679C13.6154 84.017 13.699 86.9727 13.9975 89.9117C14.1787 91.7779 14.4918 93.6406 14.7747 95.4691L14.9879 96.8246L15.0522 98.2959C15.0784 99.2248 15.1201 100.145 15.1895 101.059C15.2558 102.181 14.43 102.427 13.0437 101.783C12.1936 101.341 11.4183 100.77 10.7464 100.089C10.3292 99.6911 9.95044 99.2549 9.61517 98.7866C9.43163 98.5427 9.30347 98.2876 9.11993 98.0437C9.01745 97.7662 8.93148 97.483 8.86245 97.1957C7.98857 93.184 7.47267 89.1052 7.32074 85.0067C7.19809 80.899 7.50833 76.7917 8.24642 72.7518C8.70003 70.2766 9.05586 67.7753 9.57458 65.2527C9.84801 63.9379 10.1959 62.6397 10.6165 61.3642C11.1162 59.961 11.7989 58.6293 12.6473 57.4032C13.2166 56.6248 13.8963 55.9324 14.6654 55.3472L15.3255 54.888L15.8759 54.594C16.2333 54.396 16.6038 54.222 16.9849 54.0732C18.4442 53.4564 19.9832 53.0431 21.5584 52.8448C24.5457 52.5016 27.5733 52.697 30.4953 53.4218C34.0624 54.2417 37.3786 55.9101 40.1576 58.2829C42.8513 60.4624 44.3875 63.7481 44.3213 67.1885C44.2918 67.5663 44.2309 67.9408 44.1392 68.3083C44.0418 68.6717 43.8711 69.0154 43.7493 69.3723C43.6275 69.7291 43.2864 69.9753 43.0399 70.2598L42.1674 70.9738L41.1594 71.5087C40.8142 71.6575 40.4575 71.779 40.0927 71.872C39.4874 72.0312 38.8703 72.1437 38.2471 72.2084C36.1567 72.3678 34.0528 72.241 31.9946 71.8314C30.9843 71.6906 30.0407 71.3988 29.0532 71.1731C28.0656 70.9474 27.1098 70.6524 26.1921 70.2637C25.2745 69.875 24.5436 69.7181 23.8158 69.3543C23.088 68.9905 22.4726 68.6958 21.986 68.4096C21.5941 68.1481 21.2368 67.8386 20.9228 67.4885C20.4653 67.0007 20.2068 66.362 20.1976 65.6972C20.1608 65.4184 20.1485 65.1371 20.1608 64.8564C20.2708 64.055 21.7932 63.9955 23.9689 64.5785C27.0432 65.6946 30.2086 66.5427 33.4291 67.1133C34.8526 67.3699 36.3041 67.4312 37.7427 67.2954C38.044 67.2463 38.2997 67.172 38.5734 67.1285C38.8471 67.085 38.7615 67.062 38.777 67.0532C38.667 67.0237 38.7542 67.138 38.777 67.0532C38.7611 66.9684 38.7398 66.8846 38.7132 66.8024C38.6706 66.6477 38.6196 66.4953 38.5604 66.346C38.4053 66.0448 38.3365 65.7147 38.1847 65.4014C37.8483 64.6789 37.3925 64.0169 36.8361 63.4431C35.4992 61.9581 33.8515 60.7809 32.0092 59.9945L32.0441 59.913Z" fill="white"/>
<path d="M39.4419 18.5178C39.7606 17.9151 40.0761 17.3245 40.4192 16.7283L40.7688 16.1079C40.892 15.8337 41.0332 15.568 41.1916 15.3123L42.1439 13.7628C42.7424 12.7027 43.5007 11.8283 44.1497 10.8727L45.2491 9.75205L45.791 9.19617L46.334 8.78336C47.5015 7.75605 48.9455 7.08773 50.4914 6.85923C51.226 6.73824 51.9773 6.75039 52.7088 6.89509C53.1282 6.98137 53.529 7.14153 53.8921 7.36796C54.2069 7.57744 54.4976 7.82079 54.7588 8.09356C55.4262 8.84618 55.9396 9.72028 56.2701 10.6667C56.6629 11.9059 56.8298 13.2037 56.7628 14.499C56.704 15.8906 56.5473 17.2759 56.2939 18.6449C56.1089 19.3354 56.0216 20.052 55.8611 20.7491C55.7005 21.4461 55.4683 22.2148 55.3872 22.5177C54.9457 24.1651 54.5075 25.8004 53.9349 27.3998C52.8939 30.6004 51.7861 33.7571 50.4704 36.8581C49.3777 39.6164 48.2694 42.3835 47.1961 45.0691C45.9222 48.6941 44.0206 52.0684 41.5767 55.0407C40.7443 55.9472 40.1857 55.3431 39.9742 54.079C39.6463 52.3195 39.719 50.5113 40.187 48.7869C40.4851 47.9189 40.6641 47.0062 41.0233 46.1546L41.9419 43.5574L43.7188 38.2949C44.306 36.5437 44.9126 34.7197 45.4745 33.0137C46.0364 31.3076 46.8027 29.4746 47.4412 27.7761C48.2338 25.6576 48.8407 23.4746 49.2551 21.2511L49.4376 20.521L49.5837 19.9759L49.7421 18.7979C49.8047 18.2803 49.7581 17.7549 49.6053 17.2552C49.5323 17.0162 49.3071 16.8547 49.0558 16.8613C48.8401 16.876 48.6321 16.9454 48.4516 17.0629C47.6513 17.6438 46.9745 18.3756 46.4597 19.2167C46.3448 19.364 46.2381 19.5175 46.14 19.6764L45.5309 20.6297C45.1316 21.2887 44.7233 21.9324 44.3452 22.6101C43.5556 23.9435 42.8418 25.3362 42.177 26.742C40.1165 30.9978 38.3803 35.402 36.9829 39.9176C36.0192 43.3869 35.3292 46.9264 34.9191 50.5043C34.8156 51.2816 34.7952 52.0421 34.6795 52.8161C34.4987 53.8404 34.1668 54.832 33.6945 55.759C33.3315 56.3069 32.8245 56.7456 32.2279 57.0279C31.9794 57.1749 31.7213 57.3053 31.4552 57.4181C31.0391 57.5533 30.6869 57.3031 30.3336 56.7151C29.7761 55.8868 29.4193 54.9424 29.2913 53.956C29.0917 52.2098 29.1238 50.4462 29.3868 48.7104C29.5903 46.9732 29.8524 45.2127 30.209 43.4906C30.941 40.0097 31.8951 36.5793 33.0658 33.2203C33.937 30.7185 34.9019 28.2419 35.9605 25.7904C36.5001 24.5588 37.0609 23.3458 37.634 22.1361C38.207 20.9264 38.7499 19.6826 39.3506 18.4674L39.4419 18.5178Z" fill="white"/>
<path d="M69.049 33.6698C69.6272 32.7342 70.172 31.7766 70.6736 30.8333C71.1753 29.8901 71.7038 28.9931 72.1192 28.0787L72.2133 27.7274L72.2717 27.5094C72.2922 27.4544 72.3074 27.3976 72.3172 27.3398C72.3627 27.2225 72.3954 27.1007 72.4145 26.9764C72.5034 26.6948 72.5068 26.3932 72.4242 26.1091C72.3826 25.8894 72.1816 25.735 71.9571 25.7502C71.7635 25.8147 71.5757 25.8946 71.3952 25.9892C71.228 26.0604 71.0684 26.1482 70.919 26.251C70.8165 26.3063 70.7199 26.3718 70.6308 26.4465L70.5347 26.5116L70.3541 26.6969L69.9651 27.0731C68.9438 28.0978 67.9959 29.1421 66.9397 30.2483C64.8956 32.4011 62.9324 34.6925 61.0661 37.0617C59.4025 39.2126 57.9833 41.429 56.503 43.629C55.5831 45.0574 54.7301 46.5297 53.847 47.9679L52.5149 50.1038C52.1058 50.7991 51.4678 51.4202 51.0538 52.0363C50.7846 52.4056 50.5426 52.3797 50.2021 52.3793C49.8616 52.379 49.4548 52.0882 49.1454 51.434C48.7763 50.6292 48.5284 49.7753 48.4096 48.8999C48.3092 47.8872 48.4699 46.8669 48.8765 45.935C49.6193 44.2384 50.4257 42.5979 51.2745 40.9947C52.0813 39.3703 53.0236 37.8162 54.0915 36.3484C56.206 33.3788 58.5433 30.5721 61.0835 27.9521C61.8558 27.1723 62.6133 26.3496 63.3586 25.5236L65.769 23.0794L66.5382 22.5065C66.8523 22.2142 67.1542 21.9185 67.5083 21.6239C68.1919 21.0281 68.887 20.4873 69.5757 19.9707C70.7909 19.0415 72.2376 18.4559 73.7634 18.2754C74.5641 18.2104 75.3637 18.4247 76.0246 18.8813C76.3304 19.158 76.6394 19.4225 76.9419 19.7113L77.7167 20.633C78.5518 22.1314 78.9367 23.8343 78.8256 25.5393C78.7838 26.4664 78.6428 27.3861 78.4049 28.2829C78.3309 28.6951 78.2223 29.1003 78.0803 29.4942C77.9927 29.8213 77.9018 30.1605 77.7473 30.4437C77.2979 31.6374 76.7558 32.7944 76.1258 33.9042C74.5893 36.546 72.8806 39.085 71.0106 41.5051C68.2635 45.1573 65.1983 48.5297 62.2529 51.8951C59.9414 54.5086 57.8066 57.1954 55.4314 59.7529C54.9017 60.312 54.4054 60.8931 53.83 61.4271C53.1242 62.2013 52.25 62.806 51.2732 63.1958C50.6 63.323 49.9022 63.2141 49.299 62.8876C49.023 62.7769 48.7562 62.6447 48.5011 62.492C48.14 62.2265 48.076 61.7809 48.2146 61.1169C48.357 60.294 48.7345 59.53 49.3022 58.9155L55.1896 52.0019C57.1389 49.616 59.1012 47.1816 61.0668 44.7351C63.9329 41.1576 66.5526 37.3918 68.9079 33.4632L69.049 33.6698Z" fill="white"/>
<path d="M47.9352 87.6318C44.6811 90.047 41.2354 92.1977 37.6314 94.0631C36.3277 94.8262 34.9674 95.4903 33.562 96.0498C32.2322 96.561 30.848 96.9218 29.4355 97.1253C28.6453 97.2393 27.8439 97.2599 27.048 97.1867C26.1001 97.111 25.1832 96.8119 24.3735 96.3143L23.7417 95.8853C23.5632 95.7206 23.3911 95.5317 23.228 95.3581C22.8883 94.9939 22.6105 94.5774 22.4056 94.1251C22.2041 93.6746 22.0626 93.2002 21.9846 92.7139C21.9372 92.2789 21.9231 91.8411 21.9425 91.4043C22.1166 89.8966 22.6774 88.46 23.5714 87.2317C24.9006 85.3111 26.4921 83.5835 28.3006 82.0981C30.4755 80.1863 33.0018 78.7079 35.7424 77.7433C36.6056 77.4552 36.8132 78.147 36.5284 79.1613C36.1386 80.4542 35.3752 81.6037 34.3324 82.4679C33.7805 82.8653 33.2922 83.3187 32.7737 83.7381C32.5067 83.9522 32.2642 84.1728 32.0339 84.3968L31.2672 85.0093C30.3199 85.8256 29.4315 86.7068 28.6086 87.6466C27.8259 88.4565 27.172 89.3801 26.6694 90.3858C26.479 90.7615 26.3371 91.1597 26.2471 91.571C26.2368 91.8539 26.1751 92.084 26.2526 92.2346C26.3302 92.3853 26.291 92.3358 26.3269 92.3974C26.3432 92.4591 26.388 92.5097 26.4476 92.5336C26.4476 92.5336 26.5015 92.6259 26.5871 92.6488C26.6714 92.658 26.7539 92.6801 26.8315 92.7143C27.4105 92.7991 28.0004 92.7625 28.5633 92.6071C30.0552 92.1938 31.492 91.607 32.8438 90.8588C36.1051 89.1448 39.1745 87.0952 42.0018 84.7436C43.7885 83.2981 45.489 81.751 47.0949 80.11C48.291 78.8725 49.4905 77.6229 50.5408 76.2944C50.8125 75.9647 51.0508 75.6131 51.2981 75.2769C51.4201 75.1149 51.5454 74.9407 51.6584 74.7632L51.9252 74.3543C52.2087 73.9338 52.4437 73.4829 52.626 73.0101C52.9898 72.3696 52.8788 71.5653 52.3543 71.0417C51.8308 70.5509 50.9252 70.8016 50.3943 71.0229C50.1289 71.1335 49.8839 71.3146 49.6925 71.3931C49.5485 71.4657 49.3859 71.4944 49.225 71.4756C49.225 71.4756 48.9072 71.3904 48.7606 71.3511C48.5769 71.3214 48.3967 71.2731 48.2228 71.207C47.8901 71.0829 47.589 70.887 47.3416 70.6334C47.0746 70.3002 46.8511 69.9349 46.6766 69.5463C46.5059 69.2176 46.3702 68.8723 46.2714 68.516C46.2015 67.9244 46.281 67.3255 46.5026 66.7732C46.5891 66.4396 46.7441 66.1275 46.9578 65.8565C47.0701 65.7158 47.193 65.5838 47.3256 65.4617L47.534 65.2709L47.652 65.1726C47.6812 65.0636 47.6812 65.0636 47.6844 65.0515L47.8082 64.9808C48.8213 64.5141 49.8619 64.1079 50.9244 63.7644C51.9405 63.4451 53.0096 63.3217 54.0742 63.4009C54.5579 63.4557 55.0359 63.5534 55.5025 63.6928L56.2114 63.8827L56.8447 64.2082C57.7184 64.6899 58.4887 65.3375 59.1113 66.1139L59.8256 67.6036C60.0475 68.087 60.206 68.5963 60.2972 69.1192C60.3784 69.6473 60.3611 70.2009 60.4081 70.7588C60.4551 71.3167 60.2561 71.9126 60.1801 72.4895C60.1042 73.0664 59.8556 73.7008 59.6354 74.278C59.3895 74.8759 59.0948 75.4526 58.7542 76.0024C58.4538 76.6052 58.11 77.1856 57.7255 77.7392L57.2863 78.4005C57.1765 78.5658 57.0667 78.7311 56.9479 78.8811C54.4002 82.227 51.3978 85.2061 48.0257 87.734L47.9352 87.6318Z" fill="white"/>
<path d="M53.0212 93.4869C50.6801 95.2694 48.219 96.8916 45.6549 98.3423C44.6966 98.8386 43.8166 99.4337 42.8135 99.8531C41.0397 100.602 39.2079 101.21 37.3355 101.67C36.3613 101.909 35.3704 102.078 34.3708 102.174C33.3044 102.299 32.224 102.255 31.1701 102.043C30.1348 101.806 29.1807 101.3 28.4062 100.576C27.493 99.8029 26.9797 98.663 27.01 97.4751C27.0845 96.706 27.376 95.9741 27.8509 95.3635C28.2426 94.8521 28.7276 94.4183 29.2809 94.0847C30.1878 93.4886 31.1912 93.0506 32.248 92.7895C32.9003 92.6527 33.0581 93.1883 32.8895 94.013C32.689 94.998 32.2959 95.9336 31.7324 96.767C31.5072 97.0392 31.3135 97.3357 31.1549 97.651C31.1225 97.7721 31.1549 97.651 31.1354 97.7237C31.1354 97.7237 31.0621 97.704 31.2921 97.9214C31.6372 98.2541 32.0927 98.4501 32.5724 98.4722C32.9483 98.5285 33.33 98.5347 33.7072 98.4906C34.1258 98.3951 34.5404 98.3633 34.9809 98.2347C37.2086 97.5172 39.2835 96.4011 41.1034 94.9415C43.2516 93.4268 45.518 92.0087 47.5894 90.2916C48.8691 89.2654 50.0868 88.1654 51.2362 86.9973C52.9826 85.3566 54.4332 83.4315 55.5257 81.3044C55.8613 80.6383 55.9766 79.8833 55.855 79.1466C55.8477 79.0333 55.8029 78.9255 55.7276 78.8398C55.6854 78.7829 55.6092 78.7625 55.5443 78.7906L55.8716 78.6447L56.0475 78.5749C56.133 78.5979 56.295 78.4335 56.3536 78.4103C56.4187 78.3729 56.479 78.3281 56.5335 78.2767C56.7012 78.1399 56.5692 78.1435 56.4751 78.4948C56.3865 78.7257 56.3223 78.9652 56.2836 79.2095C56.2414 79.3669 56.1992 79.5244 56.157 79.6819L56.1342 79.7667L55.8491 79.7552C55.3004 79.7524 54.7612 79.6079 54.2846 79.336C53.8201 78.9429 53.4767 78.4277 53.2942 77.8502C53.17 77.5313 53.0271 77.2333 52.9364 76.9364C52.8041 76.4365 52.8577 75.9069 53.0872 75.4447C53.3289 74.8665 53.7482 74.3793 54.2857 74.052C54.802 73.691 55.3682 73.4055 55.9669 73.2042C57.1875 72.8115 58.5254 73.0068 59.5852 73.7323C60.3275 74.1769 60.9535 74.7896 61.4118 75.52C61.5178 75.6783 61.6076 75.8322 61.6811 75.9817C61.7586 76.1323 61.806 76.2489 61.8623 76.3808L62.1572 77.1869C62.3076 77.6839 62.3989 78.1964 62.4293 78.7139C62.4829 79.1466 62.4888 79.5835 62.4469 80.017C62.3175 81.4286 61.9227 82.8024 61.283 84.0675C60.7833 85.1033 60.1897 86.0915 59.5094 87.0199C57.6187 89.4582 55.4366 91.6592 53.0107 93.575L53.0212 93.4869Z" fill="white"/>
</svg>
