<svg width="522" height="592" viewBox="0 0 522 592" fill="none" xmlns="http://www.w3.org/2000/svg">
<path d="M71.9539 103.673C83.0339 103.673 88.3539 98.5127 88.3539 89.2327C88.3539 79.9927 83.0339 74.8727 71.9539 74.8727C60.8339 74.8727 55.5539 79.9527 55.5539 89.2327C55.5539 98.5527 60.8339 103.673 71.9539 103.673ZM71.9539 97.6327C65.6339 97.6327 62.7539 94.5127 62.7539 89.2327C62.7539 83.9927 65.6339 80.9127 71.9539 80.9127C78.2739 80.9127 81.1539 84.0327 81.1539 89.2327C81.1539 94.4727 78.2739 97.6327 71.9539 97.6327ZM121.806 83.6727C121.806 76.7127 116.166 74.8727 106.526 74.8727C97.2461 74.8727 90.6861 76.9527 90.6861 86.2727H97.8861C97.8861 81.8327 100.726 80.9127 106.926 80.9127C113.126 80.9127 114.606 81.9127 114.606 84.2327C114.606 90.5927 90.0461 87.9927 90.0461 99.6327V103.273H121.406V97.2327H100.126C101.886 91.6727 121.806 94.5127 121.806 83.6727Z" fill="white"/>
<path d="M1 50C1 22.9381 22.938 1 50 1H133.405C160.467 1 182.405 22.938 182.405 50V88.5532C182.405 116.72 205.239 139.553 233.405 139.553H472C499.062 139.553 521 161.491 521 188.553V542C521 569.062 499.062 591 472 591H50C22.938 591 1 569.062 1 542V50Z" stroke="white" stroke-width="2"/>
</svg>
