<svg width="522" height="592" viewBox="0 0 522 592" fill="none" xmlns="http://www.w3.org/2000/svg">
<path d="M71.9538 103.673C83.0338 103.673 88.3538 98.5127 88.3538 89.2327C88.3538 79.9927 83.0338 74.8727 71.9538 74.8727C60.8338 74.8727 55.5538 79.9527 55.5538 89.2327C55.5538 98.5527 60.8338 103.673 71.9538 103.673ZM71.9538 97.6327C65.6338 97.6327 62.7538 94.5127 62.7538 89.2327C62.7538 83.9927 65.6338 80.9127 71.9538 80.9127C78.2738 80.9127 81.1538 84.0327 81.1538 89.2327C81.1538 94.4727 78.2738 97.6327 71.9538 97.6327ZM108.183 97.2327V75.2727H100.983C100.983 80.6327 95.5035 80.6327 91.3835 80.6327V86.7127C94.3035 86.7127 98.0235 86.7127 101.063 84.0327L101.023 97.2327H91.3835V103.273H117.783V97.2327H108.183Z" fill="white"/>
<path d="M1 50C1 22.9381 22.938 1 50 1H133.405C160.467 1 182.405 22.938 182.405 50V88.5532C182.405 116.72 205.239 139.553 233.405 139.553H472C499.062 139.553 521 161.491 521 188.553V542C521 569.062 499.062 591 472 591H50C22.938 591 1 569.062 1 542V50Z" stroke="white" stroke-width="2"/>
</svg>
