<svg width="80" height="81" viewBox="0 0 80 81" fill="none" xmlns="http://www.w3.org/2000/svg">
<path d="M11.9703 60.6868C12.1521 60.4215 12.303 60.1363 12.4203 59.8368C12.46 59.8299 12.5006 59.8299 12.5403 59.8368C12.6606 59.7997 12.7776 59.7529 12.8903 59.6968C13.0803 59.5368 12.7803 59.8068 12.7303 59.9768C12.7303 59.9768 12.6203 59.9168 12.4403 59.8968H12.3303C12.3303 59.8968 12.3303 59.8968 12.2203 59.8968C11.898 59.966 11.5831 60.0665 11.2803 60.1968C9.99898 60.7632 8.68692 61.2573 7.35031 61.6768C6.34146 61.968 5.27583 62.0024 4.25031 61.7768C3.95055 61.6865 3.66203 61.5624 3.39031 61.4068C2.99705 61.168 2.68107 60.8208 2.48031 60.4068C2.13023 59.4336 2.15159 58.3653 2.54031 57.4068C2.71719 57.0076 2.94219 56.6315 3.21031 56.2868C3.51031 55.9568 3.82031 55.6368 4.21031 55.2868C5.23039 54.3891 6.37573 53.6446 7.61031 53.0768C7.91505 52.9323 8.21211 52.7721 8.50031 52.5968C8.73031 52.4568 9.04031 52.2868 9.03031 52.2368C9.10237 52.171 9.15729 52.0887 9.19031 51.9968C9.20763 51.9567 9.23126 51.9195 9.26031 51.8868L9.31031 51.6968L9.37031 51.4368H9.55031C9.63262 51.4134 9.71288 51.3833 9.79031 51.3468C9.71873 51.4466 9.65837 51.5539 9.61031 51.6668C9.61031 51.7168 9.55031 51.6668 9.44031 51.6668C8.58448 51.6937 7.73789 51.8523 6.93031 52.1368C6.00031 52.4068 5.05031 52.6968 4.05031 52.9468C3.42031 53.0968 3.27031 52.5868 3.51031 51.8168C3.85224 50.7739 4.56352 49.892 5.51031 49.3368C6.03028 49.0593 6.56434 48.8089 7.11031 48.5868C7.74958 48.3195 8.42253 48.1411 9.11031 48.0568C9.63529 47.9917 10.1678 48.0256 10.6803 48.1568C11.0742 48.2606 11.4466 48.4332 11.7803 48.6668C12.1933 48.944 12.5357 49.3138 12.7803 49.7468C13.1419 50.4038 13.3149 51.1478 13.2803 51.8968C13.2676 52.142 13.2375 52.3859 13.1903 52.6268C13.1471 52.8554 13.0835 53.0796 13.0003 53.2968C12.9103 53.5468 12.8103 53.7968 12.7003 54.0368C12.5788 54.2573 12.4452 54.471 12.3003 54.6768L12.0803 54.9768C12.0303 54.8468 12.0303 54.8468 12.0303 54.8468L11.8803 54.9668H11.6203C11.2397 55.0376 10.8653 55.1379 10.5003 55.2668C9.84031 55.4768 9.50031 55.9868 9.59031 56.4068C9.67031 56.6168 9.95031 56.5968 10.1403 56.5568L10.6903 56.3968C11.1136 56.2413 11.553 56.1339 12.0003 56.0768C12.0803 56.0768 12.0903 56.0768 12.4503 56.0768C12.8103 56.0768 12.9503 56.1368 13.2003 56.1768C13.4632 56.2262 13.721 56.2998 13.9703 56.3968C14.2533 56.4859 14.5225 56.6138 14.7703 56.7768C15.0417 56.9482 15.2903 57.1532 15.5103 57.3868C16.0918 58.0792 16.3948 58.9633 16.3603 59.8668C16.3238 61.0023 16.0004 62.1101 15.4203 63.0868C15.1435 63.5761 14.8077 64.0295 14.4203 64.4368C14.3003 64.5468 14.2303 64.6468 14.0803 64.7668C13.9303 64.8868 13.7803 65.0068 13.6603 65.0868C13.4342 65.2295 13.2006 65.3597 12.9603 65.4768C12.2303 65.7968 11.5903 65.9868 10.8503 66.3168C10.4998 66.4631 10.1648 66.644 9.85031 66.8568C9.55031 67.0468 9.20031 67.3768 9.38031 67.7468C9.56031 68.1168 9.95031 68.0368 10.2803 68.0168C10.6103 67.9968 10.9803 67.9368 11.2803 67.8968C11.8125 67.8099 12.3538 67.7931 12.8903 67.8468H13.0903L13.3003 67.9368C13.5927 68.0518 13.8711 68.1994 14.1303 68.3768C14.8521 68.8053 15.3738 69.5033 15.5803 70.3168C15.5938 70.8408 15.3605 71.3406 14.9503 71.6668C14.7753 71.8498 14.5845 72.0171 14.3803 72.1668C14.0326 72.3588 13.6241 72.4089 13.2403 72.3068C12.8273 72.2419 12.4342 72.0847 12.0903 71.8468C11.9055 71.6951 11.6957 71.5766 11.4703 71.4968L11.3003 71.4268H11.2103L10.9103 71.3368C10.6897 71.2428 10.4484 71.2083 10.2103 71.2368C9.93031 71.2368 9.68031 71.2368 9.33031 71.2968C8.66674 71.3819 7.99915 71.432 7.33031 71.4468C7.05267 71.444 6.77548 71.4239 6.50031 71.3868C6.28031 71.3868 6.02031 71.3068 5.85031 71.2568C5.54247 71.1752 5.24414 71.0613 4.96031 70.9168C4.76701 70.8363 4.58267 70.7358 4.41031 70.6168C4.17634 70.4708 3.96423 70.2924 3.78031 70.0868C3.51797 69.7819 3.33277 69.4183 3.24031 69.0268C3.14607 68.7023 3.10553 68.3645 3.12031 68.0268L3.22031 67.2568C3.2509 66.7847 3.41378 66.3307 3.69031 65.9468C3.78641 65.7646 3.91136 65.5992 4.06031 65.4568C4.22031 65.2968 4.35031 65.1368 4.53031 64.9768L5.08031 64.4668C5.31031 64.3068 5.58031 64.1568 5.82031 63.9968C6.06031 63.8368 6.35031 63.6768 6.62031 63.5168C6.90043 63.3455 7.191 63.1919 7.49031 63.0568L9.36031 62.1668L10.3003 61.7068L10.9103 61.3868C10.9852 61.3579 11.062 61.3345 11.1403 61.3168L11.3903 61.6768C11.5632 61.9082 11.7502 62.1286 11.9503 62.3368L12.1003 62.4968L11.0103 61.3168C11.3053 61.1095 11.5511 60.8398 11.7303 60.5268L11.9703 60.6868Z" fill="white"/>
<path d="M16.4504 57.5168L16.7804 59.7868C16.8504 60.5568 16.9404 61.3168 16.9904 62.0768C16.9904 62.6368 17.1704 63.1668 17.1804 63.7268C17.1753 65.6914 16.9777 67.6508 16.5904 69.5768C16.4604 70.4368 16.3304 71.2868 16.2104 72.1369C16.0825 73.2649 15.6771 74.3438 15.0304 75.2768C14.8004 75.5669 14.2804 75.2768 13.7804 74.8068C13.2538 74.3957 12.8977 73.8045 12.7804 73.1468C12.8569 71.1866 13.0775 69.2347 13.4404 67.3068C13.538 66.0656 13.4911 64.8172 13.3004 63.5868C13.2404 62.8968 13.1904 62.2069 13.0904 61.5268C12.9904 60.8468 12.9104 60.1468 12.7804 59.4568C12.6504 58.6068 12.4304 57.7768 12.2304 56.9368C11.9404 55.6705 11.5388 54.4323 11.0304 53.2368C10.5147 52.3683 9.92591 51.5453 9.27036 50.7768C9.14036 50.5968 8.98036 50.4468 8.86036 50.2568C8.44036 49.5568 8.56036 49.1968 9.37036 48.5068C9.56036 48.3568 9.73036 48.1868 9.93036 48.0468C10.4781 47.5683 11.285 47.535 11.8704 47.9668C12.2789 48.274 12.6664 48.608 13.0304 48.9668C13.3678 49.3517 13.6691 49.7667 13.9304 50.2068C14.4673 51.0902 14.9225 52.0208 15.2904 52.9868C15.8249 54.4421 16.2592 55.9323 16.5904 57.4468L16.4504 57.5168Z" fill="white"/>
<path d="M39.6502 32.3069C36.1122 37.1954 31.6222 41.318 26.4502 44.4269C25.5202 44.9869 24.5802 45.5369 23.6402 46.0769C22.6957 46.6067 21.7244 47.0873 20.7302 47.5169C18.1553 48.6209 15.5012 49.5301 12.7902 50.2369C11.4402 50.5669 10.1002 50.9269 8.73023 51.1669C8.05023 51.2969 7.38023 51.4369 6.73023 51.5569L5.73023 51.6969H5.30023C5.09146 51.7156 4.88428 51.749 4.68023 51.7969C4.55 51.9562 4.49528 52.1642 4.53023 52.3669C4.53582 52.5747 4.55587 52.7819 4.59023 52.9869V53.1569L4.66023 53.4669L4.82023 54.1469C5.18023 55.6869 5.66023 57.2569 6.10023 58.8569C6.54023 60.4569 6.78023 62.1169 7.02023 63.7769C7.37341 65.9622 7.44064 68.1842 7.22023 70.3869C6.95429 72.6968 6.0737 74.8931 4.67023 76.7469C3.67023 77.8769 3.12023 77.0369 2.83023 75.6469C2.67023 74.9469 2.52023 74.0969 2.40023 73.2269C2.23982 72.3095 2.18613 71.3767 2.24023 70.4469C2.32223 68.8431 2.28547 67.2353 2.13023 65.6369C1.93117 63.9332 1.64412 62.241 1.27023 60.5669C1.03023 58.8469 0.840228 57.0369 0.500228 55.1469L0.210228 53.3069C0.121207 52.8848 0.0610672 52.4572 0.030228 52.0269C-0.010076 51.6213 -0.010076 51.2126 0.030228 50.8069C0.122187 50.063 0.439757 49.365 0.940228 48.8069C1.54148 48.3105 2.26189 47.9796 3.03023 47.8469L4.37023 47.6369L5.03023 47.5469L5.39023 47.4969C5.88023 47.4969 6.39023 47.3869 6.83023 47.3069C11.7652 46.4909 16.5343 44.8764 20.9502 42.5269C25.8532 40.086 30.2161 36.6855 33.7802 32.5269C35.9763 29.9296 37.8811 27.0994 39.4602 24.0869C40.2602 22.7569 41.0102 21.3769 41.8002 19.9769C42.2002 19.2669 42.6202 18.5769 43.0802 17.8169C43.5768 16.8145 44.5335 16.1195 45.6402 15.9569H46.2502C46.4067 15.9471 46.5637 15.9471 46.7202 15.9569C47.0567 15.977 47.3911 16.0238 47.7202 16.0969C48.3835 16.2329 49.0169 16.4869 49.5902 16.8469C50.7012 17.605 51.5253 18.7143 51.9302 19.9969C52.5548 22.1868 52.6474 24.4941 52.2002 26.7269C52.019 27.7996 51.7651 28.8587 51.4402 29.8969C51.0937 30.9277 50.6691 31.9306 50.1702 32.8969C49.75 33.7581 49.2723 34.59 48.7402 35.3869C48.0233 36.4842 47.1035 37.4345 46.0302 38.1869C45.4723 38.5872 44.7682 38.7258 44.1002 38.5669C43.8284 38.534 43.5625 38.4634 43.3102 38.3569C42.6002 37.9569 43.2402 36.6869 44.4402 34.8169C46.1521 31.9663 47.3661 28.8451 48.0302 25.5869C48.3745 24.1737 48.4018 22.7019 48.1102 21.2769C48.0181 20.853 47.8064 20.4643 47.5002 20.1569C47.1817 19.8815 46.7807 19.7197 46.3602 19.6969C46.2772 19.6865 46.1932 19.6865 46.1102 19.6969C46.1102 19.6969 46.1102 19.6969 46.1602 19.6969C46.1602 19.6969 46.2102 19.6969 46.1602 19.6969C46.0884 19.7842 46.0248 19.8779 45.9702 19.9769L45.7502 20.3069C45.6202 20.5969 45.5202 20.8569 45.4002 21.1569L44.0302 24.9069C43.7795 25.5705 43.489 26.2184 43.1602 26.8469C42.8202 27.4769 42.4602 28.0969 42.1002 28.7169C41.3602 29.9469 40.5902 31.1669 39.7502 32.3469L39.6502 32.3069Z" fill="white"/>
<path d="M47.8803 80.3568C45.3203 80.1668 42.8803 79.7968 40.3503 79.4768C39.4403 79.3368 38.5303 79.3268 37.6303 79.1768C34.4603 78.6168 31.3103 77.9568 28.1803 77.2468C26.7903 76.9168 25.3903 76.6668 23.9903 76.3968C23.1003 76.2268 22.1903 76.0568 21.2903 75.8368L20.6103 75.6368L20.0303 75.2668C19.606 75.0109 19.2015 74.7235 18.8203 74.4068C18.3403 74.0068 18.6003 73.7068 19.2503 73.4068C19.5703 73.2268 20.0003 73.0068 20.4403 72.7868C20.6803 72.6768 20.9403 72.5568 21.2003 72.4568L21.5903 72.3168C21.7066 72.3027 21.8241 72.3027 21.9403 72.3168C25.3203 72.9768 28.9403 73.3668 32.4403 74.4068C34.6216 74.8671 36.8346 75.1613 39.0603 75.2868C41.5003 75.5735 43.937 75.8102 46.3703 75.9968L48.6203 76.1168H50.8503C51.9149 76.092 52.9769 76.0019 54.0303 75.8468C54.2684 75.8167 54.5028 75.7631 54.7303 75.6868C54.949 75.63 55.1629 75.5564 55.3703 75.4668C55.591 75.3679 55.8048 75.2543 56.0103 75.1268C56.1777 75.028 56.3381 74.9177 56.4903 74.7968C56.8633 74.5242 57.1118 74.1137 57.1803 73.6568C57.2109 73.2218 56.9559 72.8171 56.5503 72.6568C56.3979 72.6017 56.2405 72.5615 56.0803 72.5368C55.9792 72.505 55.8868 72.4502 55.8103 72.3768C55.7304 72.2498 55.6698 72.1116 55.6303 71.9668C55.4865 71.4739 55.439 70.9578 55.4903 70.4468C55.4903 70.1668 55.4903 69.8968 55.4903 69.6468C55.5377 69.2061 55.7751 68.808 56.1403 68.5568C56.382 68.3768 56.6397 68.2195 56.9103 68.0868C57.0703 68.0268 57.2103 67.8868 57.4103 67.9068L58.0603 68.0268C59.4635 68.3033 60.7122 69.0953 61.5603 70.2468C61.962 70.8327 62.2628 71.4817 62.4503 72.1668C62.5386 72.8811 62.5013 73.6054 62.3403 74.3068C62.1403 75.7568 60.8503 76.9468 59.6603 77.9968C59.1187 78.444 58.5361 78.8391 57.9203 79.1768L57.1903 79.5368C56.9008 79.6597 56.6035 79.7632 56.3003 79.8468C55.5195 80.106 54.7104 80.2705 53.8903 80.3368C53.5365 80.3946 53.1788 80.4246 52.8203 80.4268H51.8203C51.1303 80.4268 50.4903 80.4268 49.8203 80.4268C49.1503 80.4268 48.5003 80.4268 47.8203 80.3668L47.8803 80.3568Z" fill="white"/>
<path d="M66.52 60.2168C66.67 60.4168 66.79 60.6268 66.93 60.8368L67.12 61.1468C67.1604 61.2766 67.1839 61.4111 67.19 61.5468C67.19 62.0968 67.32 62.6368 67.32 63.1768V63.9668C67.3549 64.2257 67.3549 64.488 67.32 64.7468L67.17 65.5068C67.1064 65.7272 67.0157 65.9388 66.9 66.1368C66.76 66.4368 66.64 66.7268 66.51 66.9668C66.3967 67.2266 66.2523 67.4718 66.08 67.6968C65.5137 68.4307 64.8022 69.04 63.99 69.4868C63.2531 69.9179 62.4535 70.2316 61.62 70.4168C60.9124 70.6101 60.1835 70.7142 59.45 70.7268C58.4834 70.8366 57.5141 70.5436 56.77 69.9168C56.54 69.7168 56.84 69.3468 57.25 68.9968C57.5806 68.6616 57.9897 68.4141 58.44 68.2768C59.0231 68.2669 59.602 68.176 60.16 68.0068C60.7577 67.8554 61.3427 67.6582 61.91 67.4168C62.5772 67.0798 63.0763 66.4831 63.29 65.7668C63.43 65.4168 63.46 65.1368 63.54 64.9468C63.5999 64.6947 63.6267 64.4359 63.62 64.1768C63.6469 63.8093 63.4495 63.4619 63.12 63.2968C62.9903 63.2431 62.8566 63.1996 62.72 63.1668C62.6169 63.1583 62.5132 63.1583 62.41 63.1668H62.03C61.47 63.1668 60.88 63.0668 60.25 62.9868C59.2156 62.9456 58.1875 62.8049 57.18 62.5668C56.9464 62.5175 56.716 62.4541 56.49 62.3768C56.3416 62.2732 56.2158 62.1405 56.12 61.9868C56.0798 61.799 56.0798 61.6047 56.12 61.4168C56.2327 60.9642 56.4294 60.5368 56.7 60.1568C56.84 59.9368 56.97 59.7168 57.12 59.5168C57.361 59.1993 57.6514 58.9225 57.98 58.6968C58.3126 58.4324 58.6635 58.1917 59.03 57.9768C59.3347 57.8961 59.6459 57.8425 59.96 57.8168C60.1798 57.8037 60.4002 57.8037 60.62 57.8168C61.0359 57.7796 61.4542 57.7796 61.87 57.8168C62.29 57.8168 62.79 58.1768 64.03 58.3968L65.52 58.9768L66.11 59.5068L66.6 60.1168L66.52 60.2168Z" fill="white"/>
<path d="M58.5302 46.3568C60.2602 47.0468 62.0802 47.7168 63.9702 48.6068C64.7237 48.8854 65.4419 49.2512 66.1102 49.6968C67.498 50.6464 68.5484 52.012 69.1102 53.5968C69.2945 54.3329 69.3918 55.0881 69.4002 55.8468C69.4059 56.2525 69.3724 56.6577 69.3002 57.0568C69.2132 57.4831 69.072 57.8964 68.8802 58.2868C68.5306 58.973 68.0149 59.5608 67.3802 59.9968C66.8137 60.3604 66.1925 60.6305 65.5402 60.7968C64.063 61.3073 62.4449 61.2212 61.0302 60.5568C60.6002 60.3368 60.8002 59.8568 61.2502 59.3468C61.7151 58.7535 62.3294 58.2945 63.0302 58.0168C63.9108 57.9866 64.7615 57.6902 65.4702 57.1668C65.5888 57.0527 65.6721 56.9069 65.7102 56.7468C65.7721 56.3526 65.7721 55.9511 65.7102 55.5568C65.6959 55.4049 65.6692 55.2544 65.6302 55.1068C65.6032 55.0053 65.5629 54.9078 65.5102 54.8168C65.3899 54.5993 65.2225 54.4114 65.0202 54.2668C64.4972 53.8749 63.9341 53.5397 63.3402 53.2668C61.7572 52.4513 60.112 51.7625 58.4202 51.2068L55.0302 50.0468C53.3123 49.4046 51.6416 48.6427 50.0302 47.7668C48.5947 47.1385 47.2494 46.3213 46.0302 45.3368C45.7517 45.1067 45.494 44.8523 45.2602 44.5768C44.4602 43.4568 44.6902 42.8168 45.5302 42.1668C45.7211 42.0082 45.9215 41.8612 46.1302 41.7268C46.8005 41.3623 47.6099 41.3623 48.2802 41.7268C49.1702 42.2368 49.9102 42.7268 50.7802 43.1168C51.6502 43.5068 52.5602 43.9668 53.5902 44.3668C55.1102 44.9568 56.7402 45.6568 58.5202 46.2268L58.5302 46.3568Z" fill="white"/>
<path d="M58.8903 14.5769C59.0303 14.8469 58.6403 14.9869 57.9503 15.0569C57.6327 15.0482 57.3201 14.9768 57.0303 14.8469C56.876 14.7006 56.7323 14.5435 56.6003 14.3769C56.5403 14.2869 56.3503 12.9469 56.2203 12.4969C56.1236 12.0809 56.0899 11.6528 56.1203 11.2269C56.1203 10.3769 56.1203 9.53686 56.0603 8.71686C56.0525 8.53342 56.0796 8.35017 56.1403 8.17686C56.3664 7.58053 56.4218 6.93295 56.3003 6.30686C56.3003 6.19686 56.3003 6.09686 56.1703 5.99686C55.9317 5.3583 55.8262 4.67769 55.8603 3.99686C56.0503 3.42686 56.0903 2.86686 56.3003 2.26686C56.3003 2.18686 56.3003 2.10686 56.4203 2.00686C56.6284 1.89936 56.7389 1.66599 56.6903 1.43686C56.6903 1.31686 56.6903 1.18686 56.6903 1.05686C56.7258 0.918554 56.7761 0.784456 56.8403 0.65686C56.9426 0.502003 57.0562 0.354934 57.1803 0.21686C57.334 0.10816 57.5247 0.0649947 57.7103 0.0968604C57.8603 0.17686 58.0303 0.0468604 58.1803 0.00686044C58.2366 -0.00228681 58.294 -0.00228681 58.3503 0.00686044C58.6394 0.196274 58.9166 0.403333 59.1803 0.62686C59.4417 0.860186 59.6765 1.12178 59.8803 1.40686L60.0303 1.75686C60.1523 2.00437 60.2527 2.262 60.3303 2.52686C60.4903 3.10686 60.6403 3.72686 60.6903 3.84686C60.7403 3.96686 60.6903 4.11686 60.6203 4.25686C60.5503 4.39686 61.0203 6.10686 60.9903 6.18686C60.9903 6.55686 61.1003 6.93686 60.7803 7.30686C60.7473 7.37999 60.7473 7.46373 60.7803 7.53686C60.7826 8.18139 60.6848 8.82238 60.4903 9.43686C60.4203 9.74686 60.4203 10.0769 60.3703 10.3869C60.3703 10.4469 60.3103 10.5069 60.2903 10.5569C60.2449 10.6205 60.2111 10.6916 60.1903 10.7669C60.1203 11.5169 59.8403 12.2469 59.8303 12.9869C59.8303 13.1669 59.3603 13.9169 59.3703 14.1169C59.3803 14.3169 58.8303 14.4669 58.8903 14.5769Z" fill="white"/>
<path d="M67.5103 28.9369C67.4103 29.1569 67.1103 29.0569 66.7003 28.8169C66.5289 28.6895 66.3972 28.5161 66.3203 28.3169C66.3349 28.1452 66.3616 27.9748 66.4003 27.8069C66.4003 27.7169 67.2103 26.6569 67.4803 26.2669C67.7324 25.8934 68.0353 25.5568 68.3803 25.2669C69.0374 24.6636 69.7583 24.1338 70.5303 23.6869C70.706 23.5849 70.8994 23.517 71.1003 23.4869C71.7743 23.3805 72.4263 23.1643 73.0303 22.8469C73.1303 22.8469 73.2503 22.7769 73.3203 22.6269C73.9674 22.187 74.7125 21.9123 75.4903 21.8269C75.8203 21.8869 76.1303 21.8769 76.4903 21.9569L77.4303 22.1769C77.5203 22.1769 77.6103 22.1769 77.7003 22.2969C77.9103 22.6169 78.0803 22.5569 78.2603 22.5869C78.522 22.6052 78.7772 22.6767 79.0103 22.7969C79.1519 22.8972 79.2739 23.0226 79.3703 23.1669C79.4803 23.2869 79.3703 23.7069 79.3703 23.7569C79.3703 23.8069 79.3703 24.0869 79.3703 24.2669V24.4469C78.9564 24.8607 78.5081 25.2388 78.0303 25.5769L77.7503 25.6869L77.1503 25.9469C76.7203 26.1469 76.2603 26.2369 76.1503 26.3169C76.0403 26.3969 75.9403 26.3169 75.8303 26.3169C75.7203 26.3169 74.5103 26.8869 74.4603 26.8969C74.1703 26.8969 73.9403 27.1469 73.5703 26.9669C73.5146 26.9348 73.446 26.9348 73.3903 26.9669C72.9144 27.1498 72.4266 27.3001 71.9303 27.4169C71.6803 27.4969 71.4503 27.6269 71.2003 27.7069C71.2003 27.7069 71.0903 27.7069 71.0403 27.7069C70.9745 27.6916 70.9061 27.6916 70.8403 27.7069C70.2371 27.912 69.6572 28.1802 69.1103 28.5069C68.9903 28.5869 68.2303 28.7369 68.1103 28.8569C67.9903 28.9769 67.5503 28.8469 67.5103 28.9369Z" fill="white"/>
</svg>
