<svg width="122" height="125" viewBox="0 0 122 125" fill="none" xmlns="http://www.w3.org/2000/svg">
<path d="M55.5428 78.9297L56.0312 78.4305C81.3658 102.752 107.763 114.144 117.428 104.926C127.931 94.9085 114.906 64.1445 88.393 36.3472C61.8805 8.54991 31.7675 -5.91595 21.2622 4.10374C14.6944 10.3681 17.0976 24.9581 27.6907 43.1312L27.8208 43.3526L27.5443 43.6163L27.3142 43.3751L27.1066 43.5098C16.355 25.0571 14.0094 10.1576 20.8308 3.65145C31.6152 -6.63451 62.1494 7.81784 88.8995 35.8642C115.65 63.9105 128.642 95.0939 117.858 105.38C107.918 114.86 81.1276 103.49 55.5428 78.9297Z" fill="white"/>
<path d="M42.4479 98.1439L42.9247 97.6339C67.3002 119.786 91.628 129.533 100.772 120.812C111.274 110.795 98.2492 80.031 71.7367 52.2337C45.2241 24.4364 15.1077 9.97378 4.60653 19.9896C-1.92088 26.2153 0.412618 40.6634 10.8398 58.6815L27.0437 43.2265L27.4751 43.6788L10.6448 59.7313L10.4517 59.3938C-0.304749 40.9468 -2.65031 26.0473 4.17515 19.5373C14.9568 9.25394 45.4937 23.7037 72.2438 51.75C98.9939 79.7964 111.986 110.98 101.202 121.266C91.7823 130.25 67.0717 120.527 42.4479 98.1439Z" fill="white"/>
<path d="M21.2649 4.10115L20.8335 3.64886L4.17378 19.5386L4.60517 19.9909L21.2649 4.10115Z" fill="white"/>
<path d="M117.86 105.377L117.428 104.926L100.769 120.815L101.2 121.267L117.86 105.377Z" fill="white"/>
<path d="M25.2268 104.029L28.1839 66.8708L65.4378 65.6766L54.0687 76.5202C71.6965 93.9585 91.0649 105.943 104.673 107.822L104.511 108.477C90.7212 106.575 71.1181 94.4308 53.3463 76.7888L53.1188 76.5625L63.7886 66.3858L28.7942 67.5107L26.017 102.414L36.9687 91.9685L37.1852 92.1834C62.904 117.716 90.833 130.292 100.769 120.815L101.2 121.267C91.0183 130.979 62.8084 118.518 36.9071 92.8909L25.2268 104.029Z" fill="white"/>
</svg>
