<svg width="76" height="76" viewBox="0 0 76 76" fill="none" xmlns="http://www.w3.org/2000/svg">
<path d="M50.2065 51.6617C48.3728 51.7708 46.5327 51.687 44.7165 51.4117C43.0165 51.1717 41.3965 50.8417 39.7865 50.5117C36.5765 49.8317 33.4865 48.9717 30.4265 48.0417L28.4965 47.5317L28.0865 47.3617L27.7665 47.2617C27.6665 47.2617 27.5065 47.1317 27.4765 47.2617C27.3659 47.4762 27.2755 47.7005 27.2065 47.9317L27.0865 48.1317C27.0429 48.2513 27.0127 48.3754 26.9965 48.5017L26.6965 49.9717L25.4865 55.9717C24.6808 60.0387 23.605 64.0476 22.2665 67.9717C22.0165 68.6517 21.7565 69.3317 21.4565 69.9717C21.3065 70.3117 21.1465 70.6617 20.9765 70.9717C20.7602 71.4113 20.5199 71.8386 20.2565 72.2517C19.7377 73.1126 19.0588 73.8662 18.2565 74.4717C17.4766 75.0581 16.5219 75.3646 15.5465 75.3417C14.9424 75.1818 14.3508 74.9779 13.7765 74.7317C13.1965 74.4117 12.6165 74.0717 12.0465 73.7317C10.0465 72.5217 8.0465 71.4217 6.1465 70.2317C5.1465 69.6517 4.2265 69.0517 3.2865 68.4417C2.8114 68.1437 2.36006 67.8093 1.9365 67.4417L0.606503 66.4417C-0.463497 65.5917 -0.0834973 64.9617 1.4765 64.5217C2.48172 64.2685 3.51064 64.121 4.5465 64.0817C5.82196 64.1076 7.07828 64.3969 8.2365 64.9317C9.8165 65.6717 11.3765 66.4417 12.9065 67.2017L15.0865 68.3117C15.0865 68.3117 15.1665 68.3817 15.2465 68.3717C15.3265 68.3617 15.2465 68.3717 15.3065 68.3017C15.3665 68.2317 15.4365 68.0717 15.5065 67.9417C15.5765 67.8117 15.7665 67.4217 15.8965 67.1417C16.1565 66.5817 16.3965 65.9817 16.6365 65.3617C17.5865 62.8517 18.3965 60.0917 19.1965 57.3017C19.9225 54.5756 20.4968 51.8114 20.9165 49.0217L21.3165 46.5817C21.4944 45.4155 21.7516 44.2628 22.0865 43.1317C22.2459 42.642 22.4678 42.1748 22.7465 41.7417C23.0094 41.3447 23.3495 41.0046 23.7465 40.7417C23.9427 40.6641 24.1475 40.6104 24.3565 40.5817C24.5642 40.5429 24.7753 40.5261 24.9865 40.5317C25.2292 40.5067 25.4738 40.5067 25.7165 40.5317L26.5465 40.6917L26.8165 40.7517L30.3965 41.8917L32.5965 42.5717C34.0632 43.0184 35.5332 43.4384 37.0065 43.8317C39.8993 44.6352 42.8522 45.2038 45.8365 45.5317C46.9724 45.6521 48.1162 45.6788 49.2565 45.6117C49.637 45.5967 50.0153 45.5465 50.3865 45.4617C50.6976 45.3977 50.9889 45.2606 51.2365 45.0617C51.3865 44.9717 51.4165 44.7917 51.4665 44.6417C51.5165 44.4917 51.5665 44.3217 51.6065 44.1617C51.6465 44.0017 51.7265 43.6617 51.7865 43.3617L51.9865 42.3617C53.1165 36.6317 54.3765 30.7917 55.6765 25.0417C56.6765 20.5617 57.4965 16.0417 58.9465 11.6017C59.2765 10.6017 59.5465 9.6017 59.9465 8.6517C60.4217 7.29787 61.2137 6.07727 62.2565 5.0917C63.0009 4.53666 63.9496 4.33231 64.8565 4.5317C65.2797 4.57827 65.698 4.66193 66.1065 4.7817C66.7262 5.09705 67.1137 5.73638 67.1065 6.4317C67.1477 6.89078 67.1477 7.35262 67.1065 7.8117C67.0402 8.37158 66.9093 8.9219 66.7165 9.4517C64.4065 16.4517 62.7165 24.4517 60.7165 32.5317C60.1665 34.9917 59.6065 37.4617 59.0565 39.9317L58.2165 43.7117L57.6665 46.0217C57.5365 46.6306 57.342 47.2239 57.0865 47.7917C56.8147 48.3219 56.5073 48.833 56.1665 49.3217C55.7465 49.6917 55.2965 50.0217 54.8565 50.3217C54.3777 50.6219 53.8681 50.87 53.3365 51.0617C52.8033 51.267 52.255 51.4308 51.6965 51.5517C51.4205 51.6219 51.1398 51.672 50.8565 51.7017L50.2065 51.7817V51.6617Z" fill="white"/>
<path d="M65.2265 6.47168C65.2265 6.35168 65.2265 6.40168 65.2265 6.37168V6.07168C65.2265 5.94168 65.2265 5.69168 65.0565 5.71168C64.9537 5.69744 64.8494 5.69744 64.7465 5.71168L64.5565 5.77168C64.4302 5.81809 64.3146 5.88951 64.2165 5.98168C63.4865 6.52168 62.8565 7.23168 62.1365 7.86168C59.4002 10.0235 56.808 12.3618 54.3765 14.8617C53.3094 16.0022 52.3394 17.2298 51.4765 18.5317C50.503 20.1557 49.3671 21.6769 48.0865 23.0717C47.7865 23.3317 46.7065 23.1317 45.9265 22.0717C45.074 21.0138 44.8422 19.5848 45.3165 18.3117C45.8151 17.3299 46.4079 16.3988 47.0865 15.5317C47.7365 14.6617 48.4165 13.8317 49.0865 13.0317C50.5059 11.421 52.058 9.93245 53.7265 8.58168C54.7246 7.74443 55.6761 6.8531 56.5765 5.91168L57.9965 4.53168C58.4965 4.08168 58.9965 3.65168 59.5565 3.25168C60.1165 2.85168 60.3465 2.66168 60.7565 2.38168L61.3965 1.96168C61.6365 1.78168 62.0165 1.59168 62.3165 1.39168C62.9143 0.995954 63.5593 0.676794 64.2365 0.441676C64.8297 0.209461 65.4524 0.0613597 66.0865 0.00167651C66.3953 -0.00726472 66.704 0.0195808 67.0065 0.0816765C67.0065 0.0816765 66.9265 0.311677 67.0065 0.211677C67.0399 0.209883 67.0732 0.209883 67.1065 0.211677L67.2865 0.331677L67.6265 0.581676C68.1025 1.02673 68.4658 1.57857 68.6865 2.19168C69.4597 4.08663 70.1274 6.02292 70.6865 7.99168C71.4565 10.5117 72.0865 13.0717 72.8865 15.5517C73.5065 17.4817 74.3965 19.3117 75.1265 21.2217C75.2865 21.6417 75.4865 22.0417 75.6165 22.4717C76.0765 24.1017 75.7565 24.7417 74.4665 25.3417C74.1776 25.4916 73.8805 25.6251 73.5765 25.7417C72.5335 26.0624 71.4139 25.5625 70.9565 24.5717C69.3692 21.2979 68.1324 17.8655 67.2665 14.3317C66.5265 11.7017 65.8565 9.00168 65.0465 6.43168L65.2265 6.47168Z" fill="white"/>
</svg>
