<svg width="106" height="93" viewBox="0 0 106 93" fill="none" xmlns="http://www.w3.org/2000/svg">
<path d="M81.7239 65.4412C79.5657 66.5147 77.4766 67.7229 75.469 69.0588C74.7559 69.5738 74.1054 70.139 73.4173 70.6666C70.9468 72.4554 68.7618 74.6112 66.9372 77.0601C66.1965 78.166 65.5956 79.3601 65.1483 80.6149C64.8106 81.4062 64.6855 82.2478 64.3477 83.0391C64.2101 83.4536 64.06 83.8556 63.9098 84.2952C63.7597 84.7348 63.6471 85.1368 63.4845 85.5513C63.3219 85.9658 62.9216 85.9784 62.5087 85.4508C61.9307 84.6709 61.6231 83.7223 61.633 82.7502C61.6634 81.7406 61.8753 80.7448 62.2585 79.811L62.809 78.4167L63.4845 77.0727C64.4435 75.3409 65.6535 73.762 67.0748 72.3874C68.7387 70.7545 70.3399 68.996 72.1664 67.5264C74.1678 65.9562 76.2561 64.501 78.4213 63.1677C79.6723 62.3387 81.0734 61.5725 82.4119 60.7937C84.4135 59.5376 86.5152 58.5955 88.4542 57.3771C89.891 56.4145 91.2657 55.3614 92.5699 54.2243L93.3456 53.4958C94.3338 52.6542 94.5965 52.6039 95.6224 52.9933C95.8475 53.0813 96.0852 53.1441 96.2979 53.2446C96.6554 53.3904 96.8917 53.7364 96.8984 54.1238C96.9051 54.6646 96.7286 55.1916 96.398 55.6186C95.3357 57.0509 94.0715 58.3203 92.645 59.3869C91.2579 60.361 89.8215 61.2624 88.3416 62.0875C86.2024 63.3436 83.9757 64.3987 81.8365 65.5794L81.7239 65.4412Z" fill="white"/>
<path d="M92.8574 22.0683C92.6323 21.7543 92.4196 21.4403 92.1819 21.1388L91.4188 20.2972L89.8301 18.6518L88.0662 17.1193L87.1905 16.3405L86.2397 15.6497L84.3132 14.268C83.6502 13.8409 82.9496 13.4641 82.2616 13.0119C80.8837 12.1955 79.4546 11.4697 77.9832 10.8389C71.9356 8.33747 65.5116 6.87671 58.9807 6.51789C54.1914 6.30783 49.3939 6.6492 44.6819 7.53532C36.3024 9.00998 28.3066 12.1718 21.1759 16.8304C17.6874 19.1263 14.5945 21.9772 12.0187 25.2714C9.5069 28.5088 7.79235 32.2962 7.01474 36.325C6.36508 39.8194 6.75673 43.4285 8.14063 46.7004C9.54227 50.119 11.5899 53.2328 14.1704 55.8698C19.2368 61.0867 25.5056 64.9695 32.4223 67.1747C33.5732 67.5138 34.7366 67.8781 35.9125 68.2047C37.0995 68.5226 38.302 68.7783 39.5154 68.9709C42.5428 69.398 42.23 69.7371 39.5154 70.4531C37.601 70.9031 35.6497 71.1764 33.6858 71.2696C30.8524 71.2901 28.0371 70.814 25.3667 69.8627C22.7297 68.9417 20.1834 67.7769 17.7607 66.3834C16.5097 65.6925 15.3588 64.9263 14.2079 64.1224C13.0665 63.2613 11.9724 62.3388 10.9303 61.359C6.50749 57.4604 3.14892 52.4927 1.17263 46.9265C0.172387 43.9373 -0.194076 40.7711 0.0967838 37.6314C0.275348 36.1083 0.568075 34.6009 0.972474 33.122L1.23518 32.0417L1.62299 30.9866L2.41111 28.9015C4.75524 23.5735 8.35789 18.8999 12.9069 15.2854C18.1174 11.0754 23.9176 7.65983 30.1205 5.14875C33.2129 3.8904 36.3798 2.82488 39.6029 1.95826L42.1049 1.3679L44.6069 0.915706C46.2457 0.576561 47.922 0.450951 49.6108 0.249976C56.9008 -0.37123 64.2428 0.167145 71.3655 1.84522C74.9297 2.70669 78.4059 3.90099 81.7487 5.41252C85.1348 6.90441 88.3446 8.77077 91.3187 10.977C94.9742 13.7713 98.13 17.1693 100.651 21.0258C103.245 24.917 104.954 29.3343 105.655 33.9636C106.238 37.5205 106.081 41.1602 105.192 44.6529C104.216 48.1686 102.506 51.4355 100.176 54.2369C95.6471 59.7512 89.7425 63.2682 84.3507 66.7099C80.4069 69.0758 76.7898 71.9518 73.5922 75.2639C72.142 76.8269 70.9357 78.6014 70.0144 80.527C69.8268 81.0043 69.5766 81.4565 69.4265 81.9464L69.2763 82.4237C69.2013 82.6372 69.1262 82.8382 69.0637 83.0769C68.9078 83.561 68.8152 84.0635 68.7885 84.5716L68.6759 86.2171V87.0587V88.0635C68.6759 89.4453 68.6759 90.8018 68.851 92.2212L67.8252 92.4222C67.7389 92.4201 67.6563 92.457 67.6 92.5227L67.4624 92.6483L67.1872 92.887L67.0496 93C67.0496 93 66.962 93 66.8619 93L66.6117 92.9246C66.2615 92.8242 66.0113 92.6985 65.711 92.5981C64.5465 92.1639 63.4344 91.5993 62.3959 90.9149C61.8377 90.5068 61.3069 90.062 60.8072 89.5834C60.2817 89.1187 59.7939 88.566 59.3185 88.1012C58.3928 87.0838 57.5421 86.1166 56.8165 85.1871L56.3161 84.5465L56.0159 84.1445L55.478 83.3658C55.1402 82.8759 54.865 82.4111 54.6273 81.984C54.2242 81.2742 53.9291 80.5079 53.7516 79.7105C53.6325 79.0586 53.6325 78.3904 53.7516 77.7384C53.7993 77.1702 53.8955 76.607 54.0393 76.0553C54.3271 75.2891 55.2903 75.4272 56.6289 76.2563C57.4475 76.7642 58.207 77.3625 58.8932 78.0399C59.3185 78.4293 59.7438 78.8689 60.1441 79.296L60.8322 80.0371L61.195 80.4265L61.3201 80.5395C61.7173 80.9058 62.1637 81.2145 62.6461 81.4565C62.7962 81.4565 62.9589 81.5821 63.084 81.4565C63.2091 81.3309 62.9839 80.8787 62.9589 80.6275C62.9338 80.3763 62.9589 80.3009 62.9589 80.1753V79.9869C62.9589 79.8738 62.9589 79.9869 62.9589 79.6854C63.6412 77.6457 64.592 75.7066 65.7861 73.9199C68.0333 70.6369 70.7718 67.7219 73.905 65.278C76.8949 62.8412 79.9848 60.8189 82.8996 58.8342C85.8144 56.8496 88.6166 55.0031 90.981 52.9683C93.209 51.1768 95.0734 48.9722 96.4728 46.4743C97.119 45.2788 97.6309 44.015 97.999 42.706C98.3573 41.3784 98.5506 40.0115 98.5744 38.6362C98.634 35.7094 98.1548 32.7966 97.1608 30.0445C96.6673 28.6299 96.0213 27.2736 95.2343 25.9999C94.834 25.3467 94.4837 24.6685 94.0709 24.0278L92.6823 22.1939L92.8574 22.0683Z" fill="white"/>
<path d="M61.0196 39.1764C61.1897 40.1954 61.0638 41.242 60.6568 42.191C60.5021 42.6062 60.3006 43.0024 60.0564 43.3717C59.9188 43.5601 59.8312 43.736 59.6686 43.9244C59.5059 44.1128 59.3058 44.3264 59.1181 44.5022C58.8374 44.7948 58.5223 45.0521 58.1799 45.2684C57.8388 45.5243 57.4384 45.6886 57.0165 45.7457C55.8343 45.9505 54.62 45.665 53.6513 44.9544C52.9366 44.4424 52.3253 43.7988 51.8499 43.0577C51.3902 42.4434 51.0195 41.7668 50.749 41.048C50.6634 40.7884 50.5924 40.5242 50.5364 40.2566C50.5364 39.9677 50.5364 39.6663 50.5364 39.3648C50.5741 39.0886 50.6327 38.8157 50.7115 38.5483C50.8541 38.2936 51.0613 38.0813 51.312 37.9328C51.6247 37.7067 52.3253 38.3222 53.0759 38.9126C53.5553 39.3285 54.1124 39.6444 54.7146 39.8421C54.8397 39.6788 55.0274 39.6034 55.0649 39.8421C55.1025 40.0808 55.2526 40.4325 55.3777 40.8219C55.4158 40.9837 55.5417 41.1101 55.7029 41.1484C55.6909 41.2486 55.6909 41.3498 55.7029 41.4499C55.6923 41.4911 55.6923 41.5343 55.7029 41.5755C55.6975 41.6003 55.6975 41.6261 55.7029 41.6509L55.6404 41.5755C55.6404 41.5755 55.5153 41.2615 55.5278 41.2615C55.5278 41.2615 55.5403 41.2615 55.5278 41.2615C55.5217 41.2283 55.5217 41.1942 55.5278 41.161L55.6279 41.0605L55.6904 40.9098C55.6904 40.8093 55.8155 40.6962 55.803 40.6586C55.7905 40.6209 55.9281 40.5078 55.8906 40.3571C55.6267 40.0125 55.1861 39.8552 54.7647 39.9552C54.6827 39.9992 54.6069 40.0541 54.5395 40.1184C54.5045 40.1827 54.4752 40.25 54.4519 40.3194C54.4355 40.2715 54.4145 40.2252 54.3894 40.1812C54.3208 40.0655 54.2366 39.9598 54.1392 39.8672C54.1087 39.798 54.0614 39.7375 54.0016 39.6914C54.0016 39.6914 53.8014 39.5783 53.8515 39.5909C53.8515 39.5909 53.9015 39.6034 53.8515 39.5909H53.9515C54.0575 39.6238 54.1709 39.6238 54.2768 39.5909C54.4482 39.5701 54.6162 39.5279 54.7772 39.4653H54.6896L54.4019 39.6034C54.1892 39.7165 53.939 39.8547 53.6388 40.0431C53.3386 40.2315 53.0884 40.3948 52.8257 40.5706C51.95 41.1987 50.9617 41.3871 50.2361 40.5706C49.9925 40.1083 49.8316 39.6066 49.7607 39.0884C49.7639 38.4595 49.8871 37.837 50.1235 37.2545C50.3793 36.7451 50.7127 36.2789 51.1118 35.8728C51.4393 35.5438 51.8096 35.2607 52.2127 35.0313C53.4851 34.3174 54.9867 34.1368 56.391 34.5288C57.4314 34.7513 58.4019 35.2256 59.2182 35.9105C60.2 36.7437 60.8814 37.8781 61.1572 39.1387L61.0196 39.1764Z" fill="white"/>
<path d="M38.8773 41.9272C39.2444 43.168 39.1782 44.4976 38.6896 45.6955C38.204 46.8259 37.4372 47.8121 36.4629 48.5594C35.8422 49.1262 35.1088 49.5543 34.3112 49.8155C33.9673 49.8985 33.6136 49.9323 33.2603 49.916C32.8901 49.9215 32.5218 49.862 32.172 49.7401C31.3975 49.5335 30.7038 49.0955 30.1829 48.484C29.3828 47.578 28.8423 46.471 28.6192 45.281C28.441 44.3542 28.3988 43.4063 28.4941 42.4673C28.5131 41.1782 29.2072 39.9945 30.3205 39.3522C30.6833 39.1764 31.0461 39.7416 31.4339 40.4199C31.634 40.7465 31.8467 41.0982 32.0469 41.3745C32.2078 41.5773 32.3542 41.7914 32.4847 42.0151C32.6357 42.458 32.8417 42.88 33.0977 43.2712C33.0977 43.3717 33.2228 43.4596 33.2103 43.5727C33.2036 43.6814 33.2036 43.7905 33.2103 43.8993C33.204 44.008 33.204 44.1171 33.2103 44.2259V44.5399C33.1951 44.6187 33.1951 44.6997 33.2103 44.7785C33.173 44.8216 33.1472 44.8735 33.1352 44.9293C33.1088 44.9901 33.0879 45.0531 33.0727 45.1177C33.2603 44.5022 33.0727 44.9544 33.1602 44.8162C33.1602 44.8162 33.2603 44.8162 33.3604 44.8162L33.6231 44.7283C34.1039 44.567 34.4619 44.1597 34.5614 43.6606C34.5804 43.2717 34.4186 42.8958 34.1235 42.6432C33.6521 42.1604 32.9704 41.948 32.3096 42.0779C32.0727 42.1549 31.8988 42.3587 31.8592 42.6055V42.7311H31.7717L31.9468 42.8065C32.0594 42.8065 32.0719 42.8065 32.1094 42.9321C32.1469 43.0577 32.2345 43.0577 32.2345 43.1205C32.2586 43.1982 32.2586 43.2814 32.2345 43.3592C32.1428 43.46 32.0423 43.5525 31.9343 43.6355C31.565 43.8885 31.1709 44.1032 30.7584 44.2761L30.0203 44.6278C29.2264 45.0218 28.2732 44.8872 27.6184 44.2887C27.1601 43.6612 26.887 42.9168 26.8303 42.1407C26.7886 41.6287 26.8613 41.1137 27.0429 40.6334C27.1997 40.1602 27.4229 39.7118 27.7059 39.302C28.7703 37.9034 30.4453 37.1116 32.197 37.1792C33.6542 37.2082 35.0747 37.6431 36.3002 38.4353C37.5178 39.2264 38.4447 40.3952 38.9398 41.7639L38.8773 41.9272Z" fill="white"/>
<path d="M30.5334 45.281C30.6287 44.9671 30.7081 44.6484 30.7711 44.3264C30.7711 44.2133 30.6835 44.1631 30.7711 44.05C30.9061 43.6377 31.0188 43.2184 31.1088 42.7939C31.1134 42.6382 31.0377 42.491 30.9087 42.4045C30.746 42.2789 30.4083 42.2664 30.746 41.877C31.0838 41.4876 34.6241 39.7416 34.8493 40.0054C35.2377 40.4464 35.2689 41.0992 34.9243 41.5755C34.6992 41.9775 35.0119 42.1533 35.0494 42.4422C35.0682 42.756 35.0682 43.0706 35.0494 43.3843C35.0366 43.5725 35.0366 43.7613 35.0494 43.9495C35.0494 44.2259 35.0494 44.5273 35.1745 44.7409C35.2996 44.9544 35.6624 44.9795 35.9251 45.08C35.9877 45.08 36.0878 45.08 36.1253 45.08C36.1628 45.08 36.1253 45.2056 35.8751 45.3564L35.4122 45.5825L34.6616 45.9216L34.0111 46.2105C33.3443 46.517 32.6427 46.7405 31.922 46.8762C30.9462 46.8762 30.671 46.5245 30.4708 46.1728C30.3874 45.8876 30.3661 45.5878 30.4083 45.2936L30.5334 45.281Z" fill="white"/>
<path d="M81.1483 37.4932C80.8795 38.4169 80.4191 39.2731 79.7973 40.0054C79.4417 40.428 79.019 40.7888 78.5463 41.0731C78.2961 41.2238 78.0584 41.362 77.8082 41.4876C77.5558 41.586 77.2966 41.6658 77.0326 41.7263C76.3443 41.9564 75.6144 42.0336 74.8934 41.9523C74.5393 41.8766 74.192 41.7716 73.8551 41.6383C73.56 41.4914 73.2757 41.3235 73.0044 41.1359C72.5674 40.7775 72.1876 40.3538 71.8785 39.8798C71.3893 39.1123 71.0458 38.2606 70.8652 37.3676C70.6238 36.601 70.5554 35.79 70.6651 34.9936C70.6837 34.7218 70.6837 34.449 70.6651 34.1771C70.7362 33.9209 70.8505 33.6788 71.0028 33.4612C71.3656 33.0592 71.6408 32.6196 72.3414 32.6572C72.6585 32.7257 72.9418 32.9035 73.142 33.1597L73.6424 33.6998L74.0803 34.2022C74.4942 34.6912 74.9792 35.1147 75.5189 35.4583C75.3995 35.7389 75.3033 36.0287 75.2312 36.325C75.1436 36.6014 75.2312 36.6516 75.2312 36.7144C75.1321 36.8745 75.0563 37.0479 75.006 37.2294C75.006 37.2294 75.006 37.2922 75.006 37.3299C75.006 37.0159 74.9309 38.0585 75.006 36.6139C75.009 36.6641 75.009 36.7145 75.006 36.7647C74.9964 36.806 74.9964 36.849 75.006 36.8903C75.006 36.8903 75.0811 37.0787 75.006 36.8903C75.006 36.8903 75.0936 36.8024 75.1811 36.7521C75.3607 36.5022 75.4649 36.2057 75.4814 35.898C75.4814 35.3955 75.4814 34.78 75.1561 34.6419C74.8309 34.5037 74.8434 34.9936 74.8184 35.2825C74.8184 35.2825 74.8184 35.4583 74.8184 35.4081C74.8184 35.3579 74.5932 35.3202 74.393 35.0438C74.1929 34.7675 73.9427 34.4032 73.5799 33.8631L73.092 33.1471C72.5276 32.4372 72.3889 31.4766 72.7292 30.6349C72.8691 30.3511 73.0599 30.0956 73.2921 29.8813C73.5657 29.6758 73.8696 29.5148 74.1929 29.404C74.3555 29.404 74.5056 29.2784 74.6807 29.2407C74.8849 29.2277 75.0896 29.2277 75.2937 29.2407C75.7092 29.1898 76.1293 29.1898 76.5447 29.2407C78.1516 29.6162 79.5193 30.669 80.2977 32.1297C81.2942 33.7264 81.6476 35.6442 81.286 37.4932H81.1483Z" fill="white"/>
</svg>
