<svg xmlns="http://www.w3.org/2000/svg" viewBox="0 0 103.52 138.17"><g id="Layer_2" data-name="Layer 2"><g id="Layer_1-2" data-name="Layer 1"><path d="M79,114.26a4.82,4.82,0,0,0-2.7-.21,9.68,9.68,0,0,1-6-1.32,6.64,6.64,0,0,1-2.52-3.39,21.89,21.89,0,0,1-.69-4.12c-.17-1.12-.56-2.68-2-2.54a5.27,5.27,0,0,0-2.59,1.58,11.22,11.22,0,0,1-2.58,1.81,9.67,9.67,0,0,1-4.65.86,9.16,9.16,0,0,1-6.93-4A11.63,11.63,0,0,1,47,94.24c.73-3.54,2.55-6.78,4-10.07,1.57-3.66,3.21-7.3,4.88-10.92,1.85-4,4-7.82,5.8-11.87A122.23,122.23,0,0,0,66.23,49a217,217,0,0,0,6-25.92c.53-2.92,1-5.86,1.52-8.79.62-3.77,1.13-8-1.13-11.09C70.54.26,66.34-.65,62.9.45a14.67,14.67,0,0,0-7.92,7,43.6,43.6,0,0,0-3.65,10.17L45.57,39.15c-1,3.84-2,7.68-3.31,11.45-.71,2.13-1.57,4.36-3.38,5.69a6,6,0,0,1-7,0c-1.68-1.28-2.53-3.35-3.28-5.32A232.86,232.86,0,0,1,20.76,26c-1.12-4.38-2.2-9-5.15-12.42S7.19,8.41,3.52,11.07s-3.77,7.66-3.39,12A147.56,147.56,0,0,0,4.75,47.63C5.91,52,7.11,56.45,8.38,60.83c.55,1.89,1.13,3.77,1.72,5.63.51,1.62,1,3.2,1.4,4.85C12,73.7,14.3,73.62,16.21,73c6.88-2.27,13.68-5.17,20.91-5.7a17.58,17.58,0,0,1,5.65.38,9,9,0,0,1,4.76,2.92,9.33,9.33,0,0,1,1.61,7.25,15,15,0,0,1-.36,1.61,22.67,22.67,0,0,1-1.85,4.33,9.79,9.79,0,0,1-2.76,3.39,1.69,1.69,0,0,1-1,.4c-.06-.35.31-.89.47-1.17s.46-.79.66-1.2c.4-.8.8-1.6,1.22-2.4a16.65,16.65,0,0,0,1.76-4.63A7.49,7.49,0,0,0,45.92,72a8.91,8.91,0,0,0-5.67-2.58c-7.57-1.08-15.15,1.7-22,4.71-3.66,1.61-7.39,3.51-10,6.67C4.19,85.85,4,93,4.85,99.46c1.44,10.93,5.61,22,13.88,29.23,6,5.31,13.91,8.28,21.9,9.18a43,43,0,0,0,22.23-3.17,36.15,36.15,0,0,0,7.57-4.55,32.79,32.79,0,0,0,8.85-10.54C80.2,117.84,80.7,115.21,79,114.26Zm-10.9-91.5c.2-.82.42-1.59.58-2.37,1.21-5.46.87-11,.67-16.53C72.27,9.27,72.37,18,68.06,22.76Zm-50.67,8.6c-1-2.81-1.79-5.51-2.75-8.28S12.75,17.59,12,14.7a22.48,22.48,0,0,1,5.58,14.4A13.11,13.11,0,0,1,17.39,31.36Zm-2.31,74.47a43.77,43.77,0,0,0,20.07,20.93C27.39,126,16.39,116.22,15.08,105.83Zm22.47,4.9a18.27,18.27,0,0,1-6.17-9.52,21.31,21.31,0,0,1-.12-8.64,7,7,0,0,0,.08-2.17c-.15-.72-1.33-.59-1.93-.51A17.68,17.68,0,0,0,25.73,91c-3.31,1.28-6.7,3.07-10,4.54,3.31-3,10.25-8.36,14.86-8.25A3.42,3.42,0,0,1,34,89.64a8.29,8.29,0,0,1,0,3.29,32.19,32.19,0,0,0-.47,5.24,18.79,18.79,0,0,0,2.56,8.93,36.9,36.9,0,0,0,3.73,5.28A20.2,20.2,0,0,1,37.55,110.73Z"/><path d="M71.58,58.1c-3.65.49-6.33,3.31-8.39,6.15-4.38,6-7.53,13-10.5,19.81-1.82,4.19-4.53,9.53-3.41,14.24a7.82,7.82,0,0,0,9.62,5.61c5.29-1.58,7.9-6.79,10.49-11.19q2.79-4.73,5.48-9.5c.88-1.56,1.76-3.12,2.62-4.69.7-1.25,1.88-2.9,2-4.37.08-.25.16-.49.23-.74C81.58,67.35,80.14,57,71.58,58.1ZM61.48,73.59c2.07-7.63,7-12.4,13-12.2C68.29,63.86,65.12,68.62,61.48,73.59Z"/><path d="M98.5,36.11C93,31.35,83.65,32.66,79.73,38.74A16,16,0,0,0,77,47.91c0,4.26,1.65,7.58,5.67,9.48a28.59,28.59,0,0,0,8.08,2.49c4.34.65,7.66-1.06,10.14-4.49A14.51,14.51,0,0,0,98.5,36.11ZM81.69,51.05c-3.22-6.62.25-13.07,8-14.72C84,39.93,80.5,43.92,81.69,51.05Z"/><path d="M94,73.82a8.34,8.34,0,0,0-3.18-2.47,5.2,5.2,0,0,0-2.69-.41,7.37,7.37,0,0,0-4.64,2.88C79.62,78.45,77,84.09,73.93,89.24a41,41,0,0,0-2.32,4.27,61.27,61.27,0,0,0-2.42,6.73,10.33,10.33,0,0,0-.32,6.4A7.62,7.62,0,0,0,75,111.48c4.32.64,7.74-2,10.26-5.2,3.06-3.92,5.42-8.4,7.9-12.71C96.61,87.51,98.92,79.82,94,73.82ZM88.22,93.38c4-5.29,4.3-11,4.87-17.14C95.23,83.85,93.47,90.46,88.22,93.38Z"/></g></g></svg>